<?xml version="1.0" encoding="UTF-8" standalone="no"?>
<!DOCTYPE svg PUBLIC "-//W3C//DTD SVG 1.1//EN"
 "http://www.w3.org/Graphics/SVG/1.1/DTD/svg11.dtd">
<!-- Generated by graphviz version 2.38.0 (20140413.2041)
 -->
<!-- Title: classes_UML_SVP_ui_Overview(code_adapted) Pages: 1 -->
<svg width="2713pt" height="309pt"
 viewBox="0.00 0.00 2712.50 309.00" xmlns="http://www.w3.org/2000/svg" xmlns:xlink="http://www.w3.org/1999/xlink">
<g id="graph0" class="graph" transform="scale(1 1) rotate(0) translate(4 305)">
<title>classes_UML_SVP_ui_Overview(code_adapted)</title>
<polygon fill="white" stroke="none" points="-4,4 -4,-305 2708.5,-305 2708.5,4 -4,4"/>
<!-- 0 -->
<g id="node1" class="node"><title>0</title>
<polygon fill="none" stroke="black" points="1440.5,-88.5 1440.5,-124.5 1620.5,-124.5 1620.5,-88.5 1440.5,-88.5"/>
<text text-anchor="middle" x="1530.5" y="-102.8" font-family="Times New Roman,serif" font-size="14.00">_multiprocessing.Connection</text>
</g>
<!-- 5 -->
<g id="node6" class="node"><title>5</title>
<polygon fill="none" stroke="black" points="1754,-176.5 1754,-212.5 1863,-212.5 1863,-176.5 1754,-176.5"/>
<text text-anchor="middle" x="1808.5" y="-190.8" font-family="Times New Roman,serif" font-size="14.00">app.RunContext</text>
</g>
<!-- 0&#45;&gt;5 -->
<g id="edge5" class="edge"><title>0&#45;&gt;5</title>
<path fill="none" stroke="black" d="M1571.38,-124.516C1597.46,-134.996 1632.13,-148.245 1663.5,-158 1688.81,-165.87 1717.04,-173.118 1741.81,-178.984"/>
<polygon fill="black" stroke="black" points="1741.98,-179.024 1748.73,-176.491 1753.67,-181.75 1746.92,-184.282 1741.98,-179.024"/>
<text text-anchor="middle" x="1692" y="-146.8" font-family="Times New Roman,serif" font-size="14.00" fill="green">app_conn</text>
</g>
<!-- 0&#45;&gt;5 -->
<g id="edge6" class="edge"><title>0&#45;&gt;5</title>
<path fill="none" stroke="black" d="M1537.64,-124.848C1543.24,-136.167 1552.15,-150.236 1564.5,-158 1593.25,-176.079 1680.1,-185.385 1741.98,-189.847"/>
<polygon fill="black" stroke="black" points="1742.03,-189.851 1748.29,-186.273 1754,-190.677 1747.74,-194.254 1742.03,-189.851"/>
<text text-anchor="middle" x="1592" y="-146.8" font-family="Times New Roman,serif" font-size="14.00" fill="green">test_conn</text>
</g>
<!-- 1 -->
<g id="node2" class="node"><title>1</title>
<polygon fill="none" stroke="black" points="1639,-88.5 1639,-124.5 1844,-124.5 1844,-88.5 1639,-88.5"/>
<text text-anchor="middle" x="1741.5" y="-102.8" font-family="Times New Roman,serif" font-size="14.00">_multiprocessing.PipeConnection</text>
</g>
<!-- 1&#45;&gt;5 -->
<g id="edge7" class="edge"><title>1&#45;&gt;5</title>
<path fill="none" stroke="black" d="M1767.76,-124.707C1774.48,-129.993 1781.27,-136.223 1786.5,-143 1791.56,-149.56 1795.71,-157.463 1799,-165.049"/>
<polygon fill="black" stroke="black" points="1799.09,-165.287 1804.99,-169.427 1803.44,-176.469 1797.54,-172.329 1799.09,-165.287"/>
<text text-anchor="middle" x="1824" y="-146.8" font-family="Times New Roman,serif" font-size="14.00" fill="green">app_conn</text>
</g>
<!-- 1&#45;&gt;5 -->
<g id="edge8" class="edge"><title>1&#45;&gt;5</title>
<path fill="none" stroke="black" d="M1729.96,-124.963C1724.74,-135.232 1721.03,-148.099 1727.5,-158 1731.54,-164.175 1736.91,-169.283 1742.98,-173.506"/>
<polygon fill="black" stroke="black" points="1743.38,-173.742 1750.58,-173.326 1753.73,-179.811 1746.53,-180.227 1743.38,-173.742"/>
<text text-anchor="middle" x="1755" y="-146.8" font-family="Times New Roman,serif" font-size="14.00" fill="green">test_conn</text>
</g>
<!-- 2 -->
<g id="node3" class="node"><title>2</title>
<polygon fill="none" stroke="black" points="2225.5,-0.5 2225.5,-36.5 2319.5,-36.5 2319.5,-0.5 2225.5,-0.5"/>
<text text-anchor="middle" x="2272.5" y="-14.8" font-family="Times New Roman,serif" font-size="14.00">app.Directory</text>
</g>
<!-- 3 -->
<g id="node4" class="node"><title>3</title>
<polygon fill="none" stroke="black" points="2420.5,-0.5 2420.5,-36.5 2514.5,-36.5 2514.5,-0.5 2420.5,-0.5"/>
<text text-anchor="middle" x="2467.5" y="-14.8" font-family="Times New Roman,serif" font-size="14.00">app.LogEntry</text>
</g>
<!-- 4 -->
<g id="node5" class="node"><title>4</title>
<polygon fill="none" stroke="black" points="815,-88.5 815,-124.5 930,-124.5 930,-88.5 815,-88.5"/>
<text text-anchor="middle" x="872.5" y="-102.8" font-family="Times New Roman,serif" font-size="14.00">app.MultiProcess</text>
</g>
<!-- 4&#45;&gt;5 -->
<g id="edge9" class="edge"><title>4&#45;&gt;5</title>
<path fill="none" stroke="black" d="M930.152,-122.975C933.307,-123.692 936.438,-124.372 939.5,-125 963.714,-129.964 1134.91,-155.489 1159.5,-158 1371.46,-179.646 1623.81,-188.673 1741.66,-191.921"/>
<polygon fill="black" stroke="black" points="1741.67,-191.921 1747.77,-188.084 1753.66,-192.244 1747.56,-196.081 1741.67,-191.921"/>
<text text-anchor="middle" x="1182" y="-146.8" font-family="Times New Roman,serif" font-size="14.00" fill="green">process</text>
</g>
<!-- 16 -->
<g id="node17" class="node"><title>16</title>
<polygon fill="none" stroke="black" points="375,-176.5 375,-212.5 576,-212.5 576,-176.5 375,-176.5"/>
<text text-anchor="middle" x="475.5" y="-190.8" font-family="Times New Roman,serif" font-size="14.00">multiprocessing.process.Process</text>
</g>
<!-- 4&#45;&gt;16 -->
<g id="edge1" class="edge"><title>4&#45;&gt;16</title>
<path fill="none" stroke="black" d="M815.779,-124.574C779.356,-135.142 730.912,-148.465 687.5,-158 654.798,-165.182 618.979,-171.691 586.244,-177.115"/>
<polygon fill="none" stroke="black" points="585.493,-173.692 576.191,-178.763 586.626,-180.599 585.493,-173.692"/>
</g>
<!-- 7 -->
<g id="node8" class="node"><title>7</title>
<polygon fill="none" stroke="black" points="1774.5,-264.5 1774.5,-300.5 1842.5,-300.5 1842.5,-264.5 1774.5,-264.5"/>
<text text-anchor="middle" x="1808.5" y="-278.8" font-family="Times New Roman,serif" font-size="14.00">app.SVP</text>
</g>
<!-- 5&#45;&gt;7 -->
<g id="edge10" class="edge"><title>5&#45;&gt;7</title>
<path fill="none" stroke="black" d="M1808.5,-212.903C1808.5,-224.167 1808.5,-239.116 1808.5,-252.183"/>
<polygon fill="black" stroke="black" points="1808.5,-252.416 1812.5,-258.416 1808.5,-264.416 1804.5,-258.416 1808.5,-252.416"/>
<text text-anchor="middle" x="1842" y="-234.8" font-family="Times New Roman,serif" font-size="14.00" fill="green">run_context</text>
</g>
<!-- 6 -->
<g id="node7" class="node"><title>6</title>
<polygon fill="none" stroke="black" points="1218.5,-88.5 1218.5,-124.5 1316.5,-124.5 1316.5,-88.5 1218.5,-88.5"/>
<text text-anchor="middle" x="1267.5" y="-102.8" font-family="Times New Roman,serif" font-size="14.00">app.RunScript</text>
</g>
<!-- 6&#45;&gt;5 -->
<g id="edge11" class="edge"><title>6&#45;&gt;5</title>
<path fill="none" stroke="black" d="M1266.75,-124.677C1267.26,-135.92 1270.01,-149.967 1279.5,-158 1314.04,-187.225 1607.55,-192.499 1741.88,-193.373"/>
<polygon fill="black" stroke="black" points="1741.98,-193.374 1748,-189.408 1753.98,-193.443 1747.96,-197.408 1741.98,-193.374"/>
<text text-anchor="middle" x="1309" y="-146.8" font-family="Times New Roman,serif" font-size="14.00" fill="green">test_script</text>
</g>
<!-- 18 -->
<g id="node19" class="node"><title>18</title>
<polygon fill="none" stroke="black" points="1078.5,-176.5 1078.5,-212.5 1164.5,-212.5 1164.5,-176.5 1078.5,-176.5"/>
<text text-anchor="middle" x="1121.5" y="-190.8" font-family="Times New Roman,serif" font-size="14.00">script.Script</text>
</g>
<!-- 6&#45;&gt;18 -->
<g id="edge2" class="edge"><title>6&#45;&gt;18</title>
<path fill="none" stroke="black" d="M1248.57,-124.588C1236.31,-135.096 1219.66,-148.349 1203.5,-158 1194.22,-163.541 1183.92,-168.696 1173.84,-173.263"/>
<polygon fill="none" stroke="black" points="1172.42,-170.061 1164.68,-177.288 1175.24,-176.47 1172.42,-170.061"/>
</g>
<!-- 8 -->
<g id="node9" class="node"><title>8</title>
<polygon fill="none" stroke="black" points="2574,-0.5 2574,-36.5 2671,-36.5 2671,-0.5 2574,-0.5"/>
<text text-anchor="middle" x="2622.5" y="-14.8" font-family="Times New Roman,serif" font-size="14.00" fill="red">app.SVPError</text>
</g>
<!-- 11 -->
<g id="node12" class="node"><title>11</title>
<polygon fill="none" stroke="black" points="2554,-88.5 2554,-124.5 2691,-124.5 2691,-88.5 2554,-88.5"/>
<text text-anchor="middle" x="2622.5" y="-102.8" font-family="Times New Roman,serif" font-size="14.00" fill="red">exceptions.Exception</text>
</g>
<!-- 8&#45;&gt;11 -->
<g id="edge3" class="edge"><title>8&#45;&gt;11</title>
<path fill="none" stroke="black" d="M2622.5,-36.9034C2622.5,-48.7541 2622.5,-64.6831 2622.5,-78.2083"/>
<polygon fill="none" stroke="black" points="2619,-78.416 2622.5,-88.416 2626,-78.416 2619,-78.416"/>
</g>
<!-- 9 -->
<g id="node10" class="node"><title>9</title>
<polygon fill="none" stroke="black" points="1936,-88.5 1936,-124.5 2005,-124.5 2005,-88.5 1936,-88.5"/>
<text text-anchor="middle" x="1970.5" y="-102.8" font-family="Times New Roman,serif" font-size="14.00">app.Suite</text>
</g>
<!-- 9&#45;&gt;5 -->
<g id="edge12" class="edge"><title>9&#45;&gt;5</title>
<path fill="none" stroke="black" d="M1947.27,-124.653C1932.59,-135.058 1912.96,-148.177 1894.5,-158 1885.48,-162.799 1875.67,-167.394 1866.01,-171.592"/>
<polygon fill="black" stroke="black" points="1865.84,-171.661 1861.87,-177.679 1854.79,-176.327 1858.76,-170.309 1865.84,-171.661"/>
<text text-anchor="middle" x="1931.5" y="-146.8" font-family="Times New Roman,serif" font-size="14.00" fill="green">suite</text>
</g>
<!-- 10 -->
<g id="node11" class="node"><title>10</title>
<polygon fill="none" stroke="black" points="2540.5,-176.5 2540.5,-212.5 2704.5,-212.5 2704.5,-176.5 2540.5,-176.5"/>
<text text-anchor="middle" x="2622.5" y="-190.8" font-family="Times New Roman,serif" font-size="14.00" fill="red">exceptions.BaseException</text>
</g>
<!-- 11&#45;&gt;10 -->
<g id="edge4" class="edge"><title>11&#45;&gt;10</title>
<path fill="none" stroke="black" d="M2622.5,-124.903C2622.5,-136.754 2622.5,-152.683 2622.5,-166.208"/>
<polygon fill="none" stroke="black" points="2619,-166.416 2622.5,-176.416 2626,-166.416 2619,-166.416"/>
</g>
<!-- 12 -->
<g id="node13" class="node"><title>12</title>
<polygon fill="none" stroke="black" points="0,-88.5 0,-124.5 97,-124.5 97,-88.5 0,-88.5"/>
<text text-anchor="middle" x="48.5" y="-102.8" font-family="Times New Roman,serif" font-size="14.00">itertools.count</text>
</g>
<!-- 12&#45;&gt;16 -->
<g id="edge13" class="edge"><title>12&#45;&gt;16</title>
<path fill="none" stroke="black" d="M97.1384,-122.553C100.297,-123.413 103.438,-124.238 106.5,-125 191.696,-146.216 289.438,-164.076 362.915,-176.235"/>
<polygon fill="black" stroke="black" points="363.113,-176.267 369.681,-173.292 374.954,-178.212 368.385,-181.187 363.113,-176.267"/>
<text text-anchor="middle" x="283.5" y="-146.8" font-family="Times New Roman,serif" font-size="14.00" fill="green">_counter</text>
</g>
<!-- 13 -->
<g id="node14" class="node"><title>13</title>
<polygon fill="none" stroke="black" points="115.5,-88.5 115.5,-124.5 303.5,-124.5 303.5,-88.5 115.5,-88.5"/>
<text text-anchor="middle" x="209.5" y="-102.8" font-family="Times New Roman,serif" font-size="14.00">multiprocessing.forking.Popen</text>
</g>
<!-- 13&#45;&gt;16 -->
<g id="edge14" class="edge"><title>13&#45;&gt;16</title>
<path fill="none" stroke="black" d="M262.371,-124.594C305.16,-138.428 365.591,-157.965 411.182,-172.705"/>
<polygon fill="black" stroke="black" points="411.311,-172.747 418.251,-170.787 422.729,-176.439 415.789,-178.399 411.311,-172.747"/>
<text text-anchor="middle" x="380" y="-146.8" font-family="Times New Roman,serif" font-size="14.00" fill="green">_popen</text>
</g>
<!-- 14 -->
<g id="node15" class="node"><title>14</title>
<polygon fill="none" stroke="black" points="321.5,-88.5 321.5,-124.5 509.5,-124.5 509.5,-88.5 321.5,-88.5"/>
<text text-anchor="middle" x="415.5" y="-102.8" font-family="Times New Roman,serif" font-size="14.00">multiprocessing.forking.Popen</text>
</g>
<!-- 14&#45;&gt;16 -->
<g id="edge15" class="edge"><title>14&#45;&gt;16</title>
<path fill="none" stroke="black" d="M427.642,-124.903C435.91,-136.754 447.023,-152.683 456.459,-166.208"/>
<polygon fill="black" stroke="black" points="456.715,-166.574 463.428,-169.206 463.581,-176.416 456.867,-173.784 456.715,-166.574"/>
<text text-anchor="middle" x="471" y="-146.8" font-family="Times New Roman,serif" font-size="14.00" fill="green">_popen</text>
</g>
<!-- 15 -->
<g id="node16" class="node"><title>15</title>
<polygon fill="none" stroke="black" points="528,-88.5 528,-124.5 797,-124.5 797,-88.5 528,-88.5"/>
<text text-anchor="middle" x="662.5" y="-102.8" font-family="Times New Roman,serif" font-size="14.00">multiprocessing.process.AuthenticationString</text>
</g>
<!-- 15&#45;&gt;16 -->
<g id="edge16" class="edge"><title>15&#45;&gt;16</title>
<path fill="none" stroke="black" d="M608.833,-124.501C593.626,-129.867 577.212,-136.19 562.5,-143 545.538,-150.852 527.553,-160.964 512.365,-170.075"/>
<polygon fill="black" stroke="black" points="512.099,-170.238 509.06,-176.777 501.854,-176.486 504.894,-169.947 512.099,-170.238"/>
<text text-anchor="middle" x="588" y="-146.8" font-family="Times New Roman,serif" font-size="14.00" fill="green">_authkey</text>
</g>
<!-- 15&#45;&gt;16 -->
<g id="edge17" class="edge"><title>15&#45;&gt;16</title>
<path fill="none" stroke="black" d="M649.764,-124.886C640.798,-135.926 627.867,-149.657 613.5,-158 603.735,-163.671 593.066,-168.448 582.124,-172.469"/>
<polygon fill="black" stroke="black" points="582.005,-172.51 577.622,-178.237 570.65,-176.393 575.033,-170.667 582.005,-172.51"/>
<text text-anchor="middle" x="658" y="-146.8" font-family="Times New Roman,serif" font-size="14.00" fill="green">_authkey</text>
</g>
<!-- 17 -->
<g id="node18" class="node"><title>17</title>
<polygon fill="none" stroke="black" points="2079.5,-0.5 2079.5,-36.5 2165.5,-36.5 2165.5,-0.5 2079.5,-0.5"/>
<text text-anchor="middle" x="2122.5" y="-14.8" font-family="Times New Roman,serif" font-size="14.00">result.Result</text>
</g>
<!-- 17&#45;&gt;5 -->
<g id="edge18" class="edge"><title>17&#45;&gt;5</title>
<path fill="none" stroke="black" d="M2079.46,-23.2875C2000.91,-30.4075 1841.56,-45.8897 1833.5,-55 1829.08,-59.9932 1830.87,-63.8758 1833.5,-70 1838.1,-80.6857 1847.52,-77.4882 1852.5,-88 1865.84,-116.16 1870.53,-130.175 1856.5,-158 1854.68,-161.609 1852.3,-164.943 1849.57,-168.001"/>
<polygon fill="black" stroke="black" points="1849.37,-168.191 1847.69,-175.204 1840.57,-176.349 1842.25,-169.336 1849.37,-168.191"/>
<text text-anchor="middle" x="1884" y="-102.8" font-family="Times New Roman,serif" font-size="14.00" fill="green">results</text>
</g>
<!-- 17&#45;&gt;5 -->
<g id="edge19" class="edge"><title>17&#45;&gt;5</title>
<path fill="none" stroke="black" d="M2128.93,-36.5905C2130.79,-42.3523 2132.57,-48.8756 2133.5,-55 2138.31,-86.7614 2136,-100.268 2115.5,-125 2096.08,-148.431 2084.36,-148.346 2055.5,-158 1996.48,-177.742 1925.92,-186.506 1875.36,-190.396"/>
<polygon fill="black" stroke="black" points="1875.24,-190.404 1869.54,-194.823 1863.27,-191.263 1868.97,-186.844 1875.24,-190.404"/>
<text text-anchor="middle" x="2170.5" y="-102.8" font-family="Times New Roman,serif" font-size="14.00" fill="green">active_result</text>
</g>
<!-- 17&#45;&gt;5 -->
<g id="edge20" class="edge"><title>17&#45;&gt;5</title>
<path fill="none" stroke="black" d="M2153.94,-36.5331C2187.84,-57.1217 2233.89,-92.9951 2209.5,-125 2169.96,-176.887 1978.66,-189.559 1875.22,-192.593"/>
<polygon fill="black" stroke="black" points="1875.06,-192.597 1869.17,-196.756 1863.06,-192.917 1868.95,-188.759 1875.06,-192.597"/>
<text text-anchor="middle" x="2251.5" y="-102.8" font-family="Times New Roman,serif" font-size="14.00" fill="green">active_result</text>
</g>
<!-- 17&#45;&gt;5 -->
<g id="edge21" class="edge"><title>17&#45;&gt;5</title>
<path fill="none" stroke="black" d="M2121.95,-36.6416C2120.69,-47.5779 2117.28,-61.2857 2108.5,-70 2086.61,-91.7156 2067.07,-70.7757 2041.5,-88 2024.4,-99.5201 2029.32,-111.772 2013.5,-125 1988.64,-145.782 1978.83,-146.615 1948.5,-158 1925.11,-166.779 1898.72,-174.101 1875.21,-179.772"/>
<polygon fill="black" stroke="black" points="1874.89,-179.846 1869.96,-185.11 1863.21,-182.585 1868.14,-177.321 1874.89,-179.846"/>
<text text-anchor="middle" x="2076.5" y="-102.8" font-family="Times New Roman,serif" font-size="14.00" fill="green">active_result</text>
</g>
<!-- 17&#45;&gt;5 -->
<g id="edge22" class="edge"><title>17&#45;&gt;5</title>
<path fill="none" stroke="black" d="M2165.92,-28.2383C2181.79,-31.26 2199.92,-34.5093 2216.5,-37 2319.42,-52.4606 2486.47,-35.4149 2433.5,-125 2418.01,-151.197 2402.73,-149.508 2373.5,-158 2281.93,-184.608 2004.58,-191.275 1875.68,-192.944"/>
<polygon fill="black" stroke="black" points="1875.31,-192.948 1869.36,-197.021 1863.31,-193.095 1869.26,-189.022 1875.31,-192.948"/>
<text text-anchor="middle" x="2479.5" y="-102.8" font-family="Times New Roman,serif" font-size="14.00" fill="green">active_result</text>
</g>
<!-- 17&#45;&gt;5 -->
<g id="edge23" class="edge"><title>17&#45;&gt;5</title>
<path fill="none" stroke="black" d="M2079.48,-23.7339C2042.61,-27.3399 1988.07,-32.6178 1940.5,-37 1876.19,-42.9241 1405.12,-40.372 1361.5,-88 1350.39,-100.127 1350.95,-112.387 1361.5,-125 1408.96,-181.734 1628.74,-192.061 1741.45,-193.56"/>
<polygon fill="black" stroke="black" points="1741.66,-193.562 1747.7,-189.628 1753.65,-193.693 1747.61,-197.627 1741.66,-193.562"/>
<text text-anchor="middle" x="1396.5" y="-102.8" font-family="Times New Roman,serif" font-size="14.00" fill="green">active_result</text>
</g>
<!-- 17&#45;&gt;5 -->
<g id="edge24" class="edge"><title>17&#45;&gt;5</title>
<path fill="none" stroke="black" d="M2165.54,-28.1237C2226.75,-42.3748 2327.64,-74.3979 2290.5,-125 2261.56,-164.436 2233.45,-148.32 2185.5,-158 2078.22,-179.658 1951.03,-188.16 1875.2,-191.458"/>
<polygon fill="black" stroke="black" points="1875.02,-191.466 1869.19,-195.71 1863.03,-191.962 1868.86,-187.717 1875.02,-191.466"/>
<text text-anchor="middle" x="2333.5" y="-102.8" font-family="Times New Roman,serif" font-size="14.00" fill="green">active_result</text>
</g>
<!-- 17&#45;&gt;9 -->
<g id="edge25" class="edge"><title>17&#45;&gt;9</title>
<path fill="none" stroke="black" d="M2079.31,-30.6793C2061.28,-36.4169 2040.59,-44.4543 2023.5,-55 2012.74,-61.6367 2002.34,-70.7384 1993.65,-79.3883"/>
<polygon fill="black" stroke="black" points="1993.58,-79.464 1992.3,-86.5619 1985.26,-88.1166 1986.54,-81.0188 1993.58,-79.464"/>
<text text-anchor="middle" x="2039" y="-58.8" font-family="Times New Roman,serif" font-size="14.00" fill="green">result</text>
</g>
<!-- 17&#45;&gt;9 -->
<g id="edge26" class="edge"><title>17&#45;&gt;9</title>
<path fill="none" stroke="black" d="M2100.79,-36.5081C2084.63,-48.9963 2063.82,-64.6725 2054.5,-70 2042.61,-76.7978 2029.16,-83.0554 2016.57,-88.3616"/>
<polygon fill="black" stroke="black" points="2016.42,-88.4213 2012.38,-94.3918 2005.31,-92.9554 2009.35,-86.9848 2016.42,-88.4213"/>
<text text-anchor="middle" x="2091" y="-58.8" font-family="Times New Roman,serif" font-size="14.00" fill="green">result</text>
</g>
<!-- 19 -->
<g id="node20" class="node"><title>19</title>
<polygon fill="none" stroke="black" points="948.5,-88.5 948.5,-124.5 1072.5,-124.5 1072.5,-88.5 948.5,-88.5"/>
<text text-anchor="middle" x="1010.5" y="-102.8" font-family="Times New Roman,serif" font-size="14.00">script.ScriptConfig</text>
</g>
<!-- 19&#45;&gt;18 -->
<g id="edge27" class="edge"><title>19&#45;&gt;18</title>
<path fill="none" stroke="black" d="M1008.21,-124.716C1007.75,-135.406 1009.05,-148.812 1016.5,-158 1028.84,-173.212 1047.97,-181.939 1066.53,-186.934"/>
<polygon fill="black" stroke="black" points="1066.57,-186.943 1073.32,-184.398 1078.26,-189.647 1071.52,-192.192 1066.57,-186.943"/>
<text text-anchor="middle" x="1034.5" y="-146.8" font-family="Times New Roman,serif" font-size="14.00" fill="green">config</text>
</g>
<!-- 20 -->
<g id="node21" class="node"><title>20</title>
<polygon fill="none" stroke="black" points="1091,-88.5 1091,-124.5 1200,-124.5 1200,-88.5 1091,-88.5"/>
<text text-anchor="middle" x="1145.5" y="-102.8" font-family="Times New Roman,serif" font-size="14.00">script.ScriptInfo</text>
</g>
<!-- 20&#45;&gt;5 -->
<g id="edge28" class="edge"><title>20&#45;&gt;5</title>
<path fill="none" stroke="black" d="M1171.6,-124.567C1190.89,-136.225 1218.26,-150.815 1244.5,-158 1336.31,-183.139 1612.96,-190.564 1741.51,-192.686"/>
<polygon fill="black" stroke="black" points="1741.85,-192.691 1747.91,-188.786 1753.84,-192.881 1747.78,-196.785 1741.85,-192.691"/>
<text text-anchor="middle" x="1255.5" y="-146.8" font-family="Times New Roman,serif" font-size="14.00" fill="green">info</text>
</g>
<!-- 21 -->
<g id="node22" class="node"><title>21</title>
<polygon fill="none" stroke="black" points="1753.5,-0.5 1753.5,-36.5 1931.5,-36.5 1931.5,-0.5 1753.5,-0.5"/>
<text text-anchor="middle" x="1842.5" y="-14.8" font-family="Times New Roman,serif" font-size="14.00">script.ScriptParamGroupDef</text>
</g>
<!-- 21&#45;&gt;9 -->
<g id="edge29" class="edge"><title>21&#45;&gt;9</title>
<path fill="none" stroke="black" d="M1837.92,-36.7602C1836.17,-47.4684 1836.09,-60.8771 1843.5,-70 1865.92,-97.6218 1887.36,-78.0001 1921.5,-88 1922.38,-88.2571 1923.26,-88.5212 1924.15,-88.7914"/>
<polygon fill="black" stroke="black" points="1924.44,-88.8852 1931.38,-86.9199 1935.86,-92.5684 1928.93,-94.5337 1924.44,-88.8852"/>
<text text-anchor="middle" x="1877" y="-58.8" font-family="Times New Roman,serif" font-size="14.00" fill="green">param_defs</text>
</g>
<!-- 21&#45;&gt;9 -->
<g id="edge30" class="edge"><title>21&#45;&gt;9</title>
<path fill="none" stroke="black" d="M1878.64,-36.5056C1889.18,-41.9592 1900.54,-48.3277 1910.5,-55 1921.7,-62.5036 1933.21,-71.7559 1943.11,-80.2823"/>
<polygon fill="black" stroke="black" points="1943.41,-80.5431 1950.56,-81.5075 1952.41,-88.4751 1945.27,-87.5107 1943.41,-80.5431"/>
<text text-anchor="middle" x="1964" y="-58.8" font-family="Times New Roman,serif" font-size="14.00" fill="green">param_defs</text>
</g>
<!-- 21&#45;&gt;20 -->
<g id="edge31" class="edge"><title>21&#45;&gt;20</title>
<path fill="none" stroke="black" d="M1753.28,-21.5856C1616.27,-25.3744 1360.58,-34.9261 1271.5,-55 1243.74,-61.2552 1214.14,-72.8438 1190.61,-83.3433"/>
<polygon fill="black" stroke="black" points="1190.49,-83.3957 1186.7,-89.5272 1179.58,-88.3819 1183.37,-82.2505 1190.49,-83.3957"/>
<text text-anchor="middle" x="1305" y="-58.8" font-family="Times New Roman,serif" font-size="14.00" fill="green">param_defs</text>
</g>
<!-- 22 -->
<g id="node23" class="node"><title>22</title>
<polygon fill="none" stroke="black" points="165,-0.5 165,-36.5 254,-36.5 254,-0.5 165,-0.5"/>
<text text-anchor="middle" x="209.5" y="-14.8" font-family="Times New Roman,serif" font-size="14.00">thread._local</text>
</g>
<!-- 22&#45;&gt;13 -->
<g id="edge32" class="edge"><title>22&#45;&gt;13</title>
<path fill="none" stroke="black" d="M209.5,-36.9034C209.5,-48.1675 209.5,-63.116 209.5,-76.1827"/>
<polygon fill="black" stroke="black" points="209.5,-76.416 213.5,-82.416 209.5,-88.416 205.5,-82.416 209.5,-76.416"/>
<text text-anchor="middle" x="220" y="-58.8" font-family="Times New Roman,serif" font-size="14.00" fill="green">_tls</text>
</g>
</g>
</svg>
