<?xml version="1.0" encoding="UTF-8" standalone="no"?>
<!DOCTYPE svg PUBLIC "-//W3C//DTD SVG 1.1//EN"
 "http://www.w3.org/Graphics/SVG/1.1/DTD/svg11.dtd">
<!-- Generated by graphviz version 2.38.0 (20140413.2041)
 -->
<!-- Title: classes_demo_SVP_result_name Pages: 1 -->
<svg width="2119pt" height="397pt"
 viewBox="0.00 0.00 2118.50 397.00" xmlns="http://www.w3.org/2000/svg" xmlns:xlink="http://www.w3.org/1999/xlink">
<g id="graph0" class="graph" transform="scale(1 1) rotate(0) translate(4 393)">
<title>classes_demo_SVP_result_name</title>
<polygon fill="white" stroke="none" points="-4,4 -4,-393 2114.5,-393 2114.5,4 -4,4"/>
<!-- 0 -->
<g id="node1" class="node"><title>0</title>
<polygon fill="none" stroke="black" points="827,-88.5 827,-124.5 1002,-124.5 1002,-88.5 827,-88.5"/>
<text text-anchor="middle" x="914.5" y="-102.8" font-family="Times New Roman,serif" font-size="14.00">codecs.StreamReaderWriter</text>
</g>
<!-- 14 -->
<g id="node15" class="node"><title>14</title>
<polygon fill="none" stroke="black" points="1014.5,-176.5 1014.5,-212.5 1210.5,-212.5 1210.5,-176.5 1014.5,-176.5"/>
<text text-anchor="middle" x="1112.5" y="-190.8" font-family="Times New Roman,serif" font-size="14.00">xlsxwriter.worksheet.Worksheet</text>
</g>
<!-- 0&#45;&gt;14 -->
<g id="edge8" class="edge"><title>0&#45;&gt;14</title>
<path fill="none" stroke="black" d="M846.073,-124.548C826.268,-132.703 812.969,-143.824 825.5,-158 837.454,-171.524 926.543,-181.056 1002.33,-186.814"/>
<polygon fill="black" stroke="black" points="1002.4,-186.819 1008.68,-183.273 1014.37,-187.705 1008.09,-191.251 1002.4,-186.819"/>
<text text-anchor="middle" x="861.5" y="-146.8" font-family="Times New Roman,serif" font-size="14.00" fill="green">row_data_fh</text>
</g>
<!-- 0&#45;&gt;14 -->
<g id="edge9" class="edge"><title>0&#45;&gt;14</title>
<path fill="none" stroke="black" d="M911.806,-124.611C911.108,-135.535 912.288,-149.24 920.5,-158 932.503,-170.804 966.207,-179.058 1002.09,-184.348"/>
<polygon fill="black" stroke="black" points="1002.43,-184.394 1008.92,-181.25 1014.32,-186.03 1007.83,-189.175 1002.43,-184.394"/>
<text text-anchor="middle" x="956.5" y="-146.8" font-family="Times New Roman,serif" font-size="14.00" fill="green">row_data_fh</text>
</g>
<!-- 0&#45;&gt;14 -->
<g id="edge10" class="edge"><title>0&#45;&gt;14</title>
<path fill="none" stroke="black" d="M954.092,-124.697C985.085,-138.158 1028.4,-156.973 1061.91,-171.526"/>
<polygon fill="black" stroke="black" points="1062.31,-171.699 1069.4,-170.421 1073.31,-176.48 1066.22,-177.758 1062.31,-171.699"/>
<text text-anchor="middle" x="1031.5" y="-146.8" font-family="Times New Roman,serif" font-size="14.00" fill="green">fh</text>
</g>
<!-- 0&#45;&gt;14 -->
<g id="edge11" class="edge"><title>0&#45;&gt;14</title>
<path fill="none" stroke="black" d="M826.946,-123.556C805.223,-131.317 791.625,-142.429 805.5,-158 818.725,-172.843 919.538,-182.398 1002.09,-187.813"/>
<polygon fill="black" stroke="black" points="1002.15,-187.817 1008.39,-184.208 1014.12,-188.582 1007.88,-192.192 1002.15,-187.817"/>
<text text-anchor="middle" x="811.5" y="-146.8" font-family="Times New Roman,serif" font-size="14.00" fill="green">fh</text>
</g>
<!-- 15 -->
<g id="node16" class="node"><title>15</title>
<polygon fill="none" stroke="black" points="805,-352.5 805,-388.5 996,-388.5 996,-352.5 805,-352.5"/>
<text text-anchor="middle" x="900.5" y="-366.8" font-family="Times New Roman,serif" font-size="14.00">xlsxwriter.xmlwriter.XMLwriter</text>
</g>
<!-- 0&#45;&gt;15 -->
<g id="edge12" class="edge"><title>0&#45;&gt;15</title>
<path fill="none" stroke="black" d="M832.621,-124.557C815.891,-129.714 801.765,-135.918 796.5,-143 774.575,-172.491 753.356,-64.2645 851.5,-264 864.216,-289.878 877.989,-319.706 887.685,-341.029"/>
<polygon fill="black" stroke="black" points="887.8,-341.282 893.919,-345.097 892.752,-352.213 886.632,-348.398 887.8,-341.282"/>
<text text-anchor="middle" x="847.5" y="-234.8" font-family="Times New Roman,serif" font-size="14.00" fill="green">fh</text>
</g>
<!-- 1 -->
<g id="node2" class="node"><title>1</title>
<polygon fill="none" stroke="black" points="1095,-88.5 1095,-124.5 1234,-124.5 1234,-88.5 1095,-88.5"/>
<text text-anchor="middle" x="1164.5" y="-102.8" font-family="Times New Roman,serif" font-size="14.00">collections.defaultdict</text>
</g>
<!-- 1&#45;&gt;14 -->
<g id="edge13" class="edge"><title>1&#45;&gt;14</title>
<path fill="none" stroke="black" d="M1214.45,-124.599C1231.29,-133.159 1243.55,-144.572 1233.5,-158 1229.88,-162.838 1225.63,-167.046 1220.93,-170.703"/>
<polygon fill="black" stroke="black" points="1220.72,-170.84 1217.93,-177.486 1210.71,-177.46 1213.51,-170.814 1220.72,-170.84"/>
<text text-anchor="middle" x="1266.5" y="-146.8" font-family="Times New Roman,serif" font-size="14.00" fill="green">hyperlinks</text>
</g>
<!-- 1&#45;&gt;14 -->
<g id="edge14" class="edge"><title>1&#45;&gt;14</title>
<path fill="none" stroke="black" d="M1094.73,-114.587C1077.59,-119.824 1061.13,-128.559 1050.5,-143 1043.19,-152.93 1048.42,-162.048 1058.36,-169.723"/>
<polygon fill="black" stroke="black" points="1058.52,-169.825 1065.73,-169.728 1068.59,-176.346 1061.38,-176.443 1058.52,-169.825"/>
<text text-anchor="middle" x="1076.5" y="-146.8" font-family="Times New Roman,serif" font-size="14.00" fill="green">set_rows</text>
</g>
<!-- 1&#45;&gt;14 -->
<g id="edge15" class="edge"><title>1&#45;&gt;14</title>
<path fill="none" stroke="black" d="M1141.12,-124.75C1135.3,-130.036 1129.56,-136.255 1125.5,-143 1121.61,-149.458 1118.87,-157.059 1116.96,-164.376"/>
<polygon fill="black" stroke="black" points="1116.94,-164.434 1119.6,-171.137 1114.43,-176.168 1111.78,-169.465 1116.94,-164.434"/>
<text text-anchor="middle" x="1154.5" y="-146.8" font-family="Times New Roman,serif" font-size="14.00" fill="green">comments</text>
</g>
<!-- 1&#45;&gt;14 -->
<g id="edge16" class="edge"><title>1&#45;&gt;14</title>
<path fill="none" stroke="black" d="M1178.43,-124.63C1184.9,-134.78 1189.9,-147.641 1183.5,-158 1180.92,-162.167 1177.7,-165.862 1174.04,-169.134"/>
<polygon fill="black" stroke="black" points="1173.86,-169.271 1171.43,-176.06 1164.23,-176.429 1166.66,-169.639 1173.86,-169.271"/>
<text text-anchor="middle" x="1200" y="-146.8" font-family="Times New Roman,serif" font-size="14.00" fill="green">table</text>
</g>
<!-- 2 -->
<g id="node3" class="node"><title>2</title>
<polygon fill="none" stroke="black" points="1866.5,-176.5 1866.5,-212.5 2030.5,-212.5 2030.5,-176.5 1866.5,-176.5"/>
<text text-anchor="middle" x="1948.5" y="-190.8" font-family="Times New Roman,serif" font-size="14.00" fill="red">exceptions.BaseException</text>
</g>
<!-- 3 -->
<g id="node4" class="node"><title>3</title>
<polygon fill="none" stroke="black" points="1880,-88.5 1880,-124.5 2017,-124.5 2017,-88.5 1880,-88.5"/>
<text text-anchor="middle" x="1948.5" y="-102.8" font-family="Times New Roman,serif" font-size="14.00" fill="red">exceptions.Exception</text>
</g>
<!-- 3&#45;&gt;2 -->
<g id="edge1" class="edge"><title>3&#45;&gt;2</title>
<path fill="none" stroke="black" d="M1948.5,-124.903C1948.5,-136.754 1948.5,-152.683 1948.5,-166.208"/>
<polygon fill="none" stroke="black" points="1945,-166.416 1948.5,-176.416 1952,-166.416 1945,-166.416"/>
</g>
<!-- 4 -->
<g id="node5" class="node"><title>4</title>
<polygon fill="none" stroke="black" points="2024.5,-0.5 2024.5,-36.5 2110.5,-36.5 2110.5,-0.5 2024.5,-0.5"/>
<text text-anchor="middle" x="2067.5" y="-14.8" font-family="Times New Roman,serif" font-size="14.00">result.Result</text>
</g>
<!-- 5 -->
<g id="node6" class="node"><title>5</title>
<polygon fill="none" stroke="black" points="1891,-0.5 1891,-36.5 2006,-36.5 2006,-0.5 1891,-0.5"/>
<text text-anchor="middle" x="1948.5" y="-14.8" font-family="Times New Roman,serif" font-size="14.00" fill="red">result.ResultError</text>
</g>
<!-- 5&#45;&gt;3 -->
<g id="edge2" class="edge"><title>5&#45;&gt;3</title>
<path fill="none" stroke="black" d="M1948.5,-36.9034C1948.5,-48.7541 1948.5,-64.6831 1948.5,-78.2083"/>
<polygon fill="none" stroke="black" points="1945,-78.416 1948.5,-88.416 1952,-78.416 1945,-78.416"/>
</g>
<!-- 6 -->
<g id="node7" class="node"><title>6</title>
<polygon fill="none" stroke="black" points="48,-352.5 48,-388.5 195,-388.5 195,-352.5 48,-352.5"/>
<text text-anchor="middle" x="121.5" y="-366.8" font-family="Times New Roman,serif" font-size="14.00">result.ResultWorkbook</text>
</g>
<!-- 7 -->
<g id="node8" class="node"><title>7</title>
<polygon fill="none" stroke="black" points="614.5,-88.5 614.5,-124.5 808.5,-124.5 808.5,-88.5 614.5,-88.5"/>
<text text-anchor="middle" x="711.5" y="-102.8" font-family="Times New Roman,serif" font-size="14.00">xlsxwriter.chartsheet.Chartsheet</text>
</g>
<!-- 12 -->
<g id="node13" class="node"><title>12</title>
<polygon fill="none" stroke="black" points="424,-264.5 424,-300.5 621,-300.5 621,-264.5 424,-264.5"/>
<text text-anchor="middle" x="522.5" y="-278.8" font-family="Times New Roman,serif" font-size="14.00">xlsxwriter.workbook.Workbook</text>
</g>
<!-- 7&#45;&gt;12 -->
<g id="edge17" class="edge"><title>7&#45;&gt;12</title>
<path fill="none" stroke="black" d="M709.489,-124.542C706.22,-146.579 698.134,-185.397 679.5,-213 664.71,-234.909 641.263,-249.862 616.954,-260.048"/>
<polygon fill="black" stroke="black" points="616.938,-260.054 612.794,-265.956 605.752,-264.4 609.896,-258.499 616.938,-260.054"/>
<text text-anchor="middle" x="743.5" y="-190.8" font-family="Times New Roman,serif" font-size="14.00" fill="green">chartsheet_class</text>
</g>
<!-- 7&#45;&gt;14 -->
<g id="edge3" class="edge"><title>7&#45;&gt;14</title>
<path fill="none" stroke="black" d="M734.362,-124.744C750.766,-136.169 773.882,-150.405 796.5,-158 863.301,-180.433 942.048,-189.321 1004.22,-192.594"/>
<polygon fill="none" stroke="black" points="1004.29,-196.101 1014.45,-193.09 1004.63,-189.11 1004.29,-196.101"/>
</g>
<!-- 8 -->
<g id="node9" class="node"><title>8</title>
<polygon fill="none" stroke="black" points="1299.5,-88.5 1299.5,-124.5 1545.5,-124.5 1545.5,-88.5 1299.5,-88.5"/>
<text text-anchor="middle" x="1422.5" y="-102.8" font-family="Times New Roman,serif" font-size="14.00">xlsxwriter.compat_collections.defaultdict</text>
</g>
<!-- 8&#45;&gt;14 -->
<g id="edge18" class="edge"><title>8&#45;&gt;14</title>
<path fill="none" stroke="black" d="M1500.25,-124.598C1520.69,-132.562 1533.76,-143.539 1520.5,-158 1500.68,-179.617 1336.94,-188.116 1223.02,-191.426"/>
<polygon fill="black" stroke="black" points="1222.77,-191.433 1216.89,-195.599 1210.78,-191.768 1216.66,-187.602 1222.77,-191.433"/>
<text text-anchor="middle" x="1555.5" y="-146.8" font-family="Times New Roman,serif" font-size="14.00" fill="green">hyperlinks</text>
</g>
<!-- 8&#45;&gt;14 -->
<g id="edge19" class="edge"><title>8&#45;&gt;14</title>
<path fill="none" stroke="black" d="M1381.51,-124.56C1347.41,-138.717 1303.76,-156.735 1299.5,-158 1275.02,-165.267 1248.29,-171.381 1222.89,-176.376"/>
<polygon fill="black" stroke="black" points="1222.72,-176.408 1217.58,-181.465 1210.93,-178.665 1216.07,-173.608 1222.72,-176.408"/>
<text text-anchor="middle" x="1362.5" y="-146.8" font-family="Times New Roman,serif" font-size="14.00" fill="green">set_rows</text>
</g>
<!-- 8&#45;&gt;14 -->
<g id="edge20" class="edge"><title>8&#45;&gt;14</title>
<path fill="none" stroke="black" d="M1415.74,-124.906C1410.38,-136.251 1401.75,-150.326 1389.5,-158 1361.99,-175.237 1287.46,-184.154 1222.64,-188.74"/>
<polygon fill="black" stroke="black" points="1222.63,-188.74 1216.91,-193.134 1210.66,-189.547 1216.38,-185.152 1222.63,-188.74"/>
<text text-anchor="middle" x="1434.5" y="-146.8" font-family="Times New Roman,serif" font-size="14.00" fill="green">comments</text>
</g>
<!-- 8&#45;&gt;14 -->
<g id="edge21" class="edge"><title>8&#45;&gt;14</title>
<path fill="none" stroke="black" d="M1452.89,-124.622C1466.51,-134.427 1477.51,-146.942 1467.5,-158 1451.17,-176.048 1321.04,-185.317 1223.03,-189.783"/>
<polygon fill="black" stroke="black" points="1222.93,-189.787 1217.11,-194.048 1210.94,-190.317 1216.76,-186.056 1222.93,-189.787"/>
<text text-anchor="middle" x="1485" y="-146.8" font-family="Times New Roman,serif" font-size="14.00" fill="green">table</text>
</g>
<!-- 9 -->
<g id="node10" class="node"><title>9</title>
<polygon fill="none" stroke="black" points="1600,-0.5 1600,-36.5 1769,-36.5 1769,-0.5 1600,-0.5"/>
<text text-anchor="middle" x="1684.5" y="-14.8" font-family="Times New Roman,serif" font-size="14.00">xlsxwriter.drawing.Drawing</text>
</g>
<!-- 9&#45;&gt;7 -->
<g id="edge22" class="edge"><title>9&#45;&gt;7</title>
<path fill="none" stroke="black" d="M1599.96,-23.7935C1446.72,-32.0982 1112.69,-52.5986 820.892,-87.6447"/>
<polygon fill="black" stroke="black" points="820.696,-87.6683 815.22,-92.3604 808.783,-89.1104 814.259,-84.4184 820.696,-87.6683"/>
<text text-anchor="middle" x="1150" y="-58.8" font-family="Times New Roman,serif" font-size="14.00" fill="green">drawing</text>
</g>
<!-- 9&#45;&gt;14 -->
<g id="edge23" class="edge"><title>9&#45;&gt;14</title>
<path fill="none" stroke="black" d="M1663.91,-36.7002C1649.44,-49.6337 1630.42,-68.4259 1617.5,-88 1598.95,-116.103 1615.78,-138.263 1588.5,-158 1559.59,-178.915 1354.09,-187.756 1222.72,-191.303"/>
<polygon fill="black" stroke="black" points="1222.64,-191.305 1216.75,-195.461 1210.64,-191.62 1216.54,-187.464 1222.64,-191.305"/>
<text text-anchor="middle" x="1640" y="-102.8" font-family="Times New Roman,serif" font-size="14.00" fill="green">drawing</text>
</g>
<!-- 9&#45;&gt;14 -->
<g id="edge24" class="edge"><title>9&#45;&gt;14</title>
<path fill="none" stroke="black" d="M1684.91,-36.8238C1684.61,-59.1641 1681.14,-98.3112 1662.5,-125 1646.61,-147.748 1635.89,-149.427 1609.5,-158 1540.18,-180.519 1346.77,-188.774 1222.67,-191.786"/>
<polygon fill="black" stroke="black" points="1222.51,-191.789 1216.6,-195.928 1210.51,-192.069 1216.42,-187.931 1222.51,-191.789"/>
<text text-anchor="middle" x="1702" y="-102.8" font-family="Times New Roman,serif" font-size="14.00" fill="green">drawing</text>
</g>
<!-- 9&#45;&gt;14 -->
<g id="edge25" class="edge"><title>9&#45;&gt;14</title>
<path fill="none" stroke="black" d="M1701.51,-36.6565C1721.02,-58.4742 1747.95,-96.7073 1728.5,-125 1705.31,-158.738 1682.48,-149.2 1642.5,-158 1565.32,-174.988 1353.9,-185.141 1222.6,-189.997"/>
<polygon fill="black" stroke="black" points="1222.54,-189.999 1216.69,-194.215 1210.54,-190.437 1216.4,-186.221 1222.54,-189.999"/>
<text text-anchor="middle" x="1758" y="-102.8" font-family="Times New Roman,serif" font-size="14.00" fill="green">drawing</text>
</g>
<!-- 9&#45;&gt;15 -->
<g id="edge4" class="edge"><title>9&#45;&gt;15</title>
<path fill="none" stroke="black" d="M1769.16,-35.5653C1804.94,-47.7366 1838.5,-68.906 1838.5,-105.5 1838.5,-105.5 1838.5,-105.5 1838.5,-283.5 1838.5,-324.907 1251.2,-354.632 1006.03,-365.236"/>
<polygon fill="none" stroke="black" points="1005.88,-361.739 996.038,-365.666 1006.18,-368.733 1005.88,-361.739"/>
</g>
<!-- 10 -->
<g id="node11" class="node"><title>10</title>
<polygon fill="none" stroke="black" points="0,-176.5 0,-212.5 155,-212.5 155,-176.5 0,-176.5"/>
<text text-anchor="middle" x="77.5" y="-190.8" font-family="Times New Roman,serif" font-size="14.00">xlsxwriter.format.Format</text>
</g>
<!-- 10&#45;&gt;6 -->
<g id="edge26" class="edge"><title>10&#45;&gt;6</title>
<path fill="none" stroke="black" d="M81.799,-212.501C89.3236,-242.257 104.958,-304.085 114.204,-340.646"/>
<polygon fill="black" stroke="black" points="114.242,-340.797 119.59,-345.633 117.184,-352.43 111.835,-347.594 114.242,-340.797"/>
<text text-anchor="middle" x="136.5" y="-278.8" font-family="Times New Roman,serif" font-size="14.00" fill="green">hdr_format</text>
</g>
<!-- 10&#45;&gt;6 -->
<g id="edge27" class="edge"><title>10&#45;&gt;6</title>
<path fill="none" stroke="black" d="M59.0743,-212.821C39.0534,-233.842 11.8787,-270.287 27.5,-301 37.128,-319.929 54.7104,-334.867 72.0863,-345.897"/>
<polygon fill="black" stroke="black" points="72.4871,-346.135 79.6884,-345.759 82.8057,-352.261 75.6044,-352.638 72.4871,-346.135"/>
<text text-anchor="middle" x="59.5" y="-278.8" font-family="Times New Roman,serif" font-size="14.00" fill="green">link_format</text>
</g>
<!-- 10&#45;&gt;12 -->
<g id="edge28" class="edge"><title>10&#45;&gt;12</title>
<path fill="none" stroke="black" d="M150.611,-212.502C167.667,-217.537 185.51,-223.698 201.5,-231 212.601,-236.069 213.029,-241.836 224.5,-246 284.168,-267.661 354.537,-276.745 411.908,-280.317"/>
<polygon fill="black" stroke="black" points="411.964,-280.32 418.18,-276.666 423.944,-280.998 417.728,-284.653 411.964,-280.32"/>
<text text-anchor="middle" x="276.5" y="-234.8" font-family="Times New Roman,serif" font-size="14.00" fill="green">default_url_format</text>
</g>
<!-- 10&#45;&gt;12 -->
<g id="edge29" class="edge"><title>10&#45;&gt;12</title>
<path fill="none" stroke="black" d="M155.258,-211.657C158.036,-212.128 160.79,-212.577 163.5,-213 236.387,-224.367 260.228,-203.058 328.5,-231 338.457,-235.075 337.74,-241.474 347.5,-246 367.525,-255.286 389.949,-262.153 411.888,-267.228"/>
<polygon fill="black" stroke="black" points="411.928,-267.237 418.643,-264.607 423.653,-269.794 416.938,-272.424 411.928,-267.237"/>
<text text-anchor="middle" x="404" y="-234.8" font-family="Times New Roman,serif" font-size="14.00" fill="green">default_date_format</text>
</g>
<!-- 10&#45;&gt;15 -->
<g id="edge5" class="edge"><title>10&#45;&gt;15</title>
<path fill="none" stroke="black" d="M116.798,-212.57C141.659,-223.007 174.63,-236.191 204.5,-246 407.54,-312.68 656.407,-345.79 794.802,-360.147"/>
<polygon fill="none" stroke="black" points="794.677,-363.652 804.982,-361.189 795.39,-356.688 794.677,-363.652"/>
</g>
<!-- 11 -->
<g id="node12" class="node"><title>11</title>
<polygon fill="none" stroke="black" points="173,-176.5 173,-212.5 428,-212.5 428,-176.5 173,-176.5"/>
<text text-anchor="middle" x="300.5" y="-190.8" font-family="Times New Roman,serif" font-size="14.00">xlsxwriter.sharedstrings.SharedStringTable</text>
</g>
<!-- 11&#45;&gt;12 -->
<g id="edge30" class="edge"><title>11&#45;&gt;12</title>
<path fill="none" stroke="black" d="M415.087,-212.526C432.142,-217.258 449.136,-223.296 464.5,-231 471.469,-234.494 484.149,-245.31 495.88,-256.039"/>
<polygon fill="black" stroke="black" points="496.172,-256.31 503.289,-257.469 504.957,-264.484 497.84,-263.326 496.172,-256.31"/>
<text text-anchor="middle" x="509" y="-234.8" font-family="Times New Roman,serif" font-size="14.00" fill="green">str_table</text>
</g>
<!-- 12&#45;&gt;6 -->
<g id="edge31" class="edge"><title>12&#45;&gt;6</title>
<path fill="none" stroke="black" d="M442.796,-300.594C374.675,-315.203 276.894,-336.174 207.123,-351.137"/>
<polygon fill="black" stroke="black" points="207.04,-351.155 202.012,-356.324 195.306,-353.671 200.334,-348.502 207.04,-351.155"/>
<text text-anchor="middle" x="355.5" y="-322.8" font-family="Times New Roman,serif" font-size="14.00" fill="green">wb</text>
</g>
<!-- 12&#45;&gt;15 -->
<g id="edge6" class="edge"><title>12&#45;&gt;15</title>
<path fill="none" stroke="black" d="M597.633,-300.594C660.504,-314.898 750.176,-335.299 815.628,-350.191"/>
<polygon fill="none" stroke="black" points="814.982,-353.633 825.51,-352.439 816.535,-346.807 814.982,-353.633"/>
</g>
<!-- 13 -->
<g id="node14" class="node"><title>13</title>
<polygon fill="none" stroke="black" points="446.5,-176.5 446.5,-212.5 670.5,-212.5 670.5,-176.5 446.5,-176.5"/>
<text text-anchor="middle" x="558.5" y="-190.8" font-family="Times New Roman,serif" font-size="14.00">xlsxwriter.workbook.WorksheetMeta</text>
</g>
<!-- 13&#45;&gt;12 -->
<g id="edge32" class="edge"><title>13&#45;&gt;12</title>
<path fill="none" stroke="black" d="M551.215,-212.903C546.401,-224.402 539.981,-239.74 534.432,-252.997"/>
<polygon fill="black" stroke="black" points="534.285,-253.347 535.658,-260.426 529.651,-264.416 528.279,-257.337 534.285,-253.347"/>
<text text-anchor="middle" x="589" y="-234.8" font-family="Times New Roman,serif" font-size="14.00" fill="green">worksheet_meta</text>
</g>
<!-- 14&#45;&gt;6 -->
<g id="edge33" class="edge"><title>14&#45;&gt;6</title>
<path fill="none" stroke="black" d="M1042.86,-212.572C949.303,-235.08 777.634,-274.879 629.5,-301 481.91,-327.025 308.666,-348.453 207.389,-360.07"/>
<polygon fill="black" stroke="black" points="207.324,-360.077 201.816,-364.731 195.401,-361.437 200.909,-356.783 207.324,-360.077"/>
<text text-anchor="middle" x="842.5" y="-278.8" font-family="Times New Roman,serif" font-size="14.00" fill="green">ws_index</text>
</g>
<!-- 14&#45;&gt;12 -->
<g id="edge34" class="edge"><title>14&#45;&gt;12</title>
<path fill="none" stroke="black" d="M1014.07,-199.163C917.58,-203.718 777.745,-213.172 726.5,-231 714.974,-235.01 714.807,-241.408 703.5,-246 681.419,-254.968 656.878,-261.722 633.175,-266.792"/>
<polygon fill="black" stroke="black" points="633.007,-266.826 627.926,-271.942 621.248,-269.219 626.33,-264.103 633.007,-266.826"/>
<text text-anchor="middle" x="773" y="-234.8" font-family="Times New Roman,serif" font-size="14.00" fill="green">worksheet_class</text>
</g>
<!-- 14&#45;&gt;15 -->
<g id="edge7" class="edge"><title>14&#45;&gt;15</title>
<path fill="none" stroke="black" d="M1091.79,-212.501C1053.71,-243.751 972.537,-310.376 929.186,-345.956"/>
<polygon fill="none" stroke="black" points="926.807,-343.381 921.298,-352.43 931.248,-348.791 926.807,-343.381"/>
</g>
<!-- 15&#45;&gt;14 -->
<g id="edge35" class="edge"><title>15&#45;&gt;14</title>
<path fill="none" stroke="black" d="M903.626,-352.24C908.635,-329.245 920.547,-288.608 945.5,-264 967.562,-242.243 997.495,-227.074 1025.93,-216.65"/>
<polygon fill="black" stroke="black" points="1026.23,-216.543 1030.59,-210.796 1037.57,-212.606 1033.21,-218.353 1026.23,-216.543"/>
<text text-anchor="middle" x="963.5" y="-278.8" font-family="Times New Roman,serif" font-size="14.00" fill="green">rstring</text>
</g>
</g>
</svg>
