<?xml version="1.0" encoding="UTF-8" standalone="no"?>
<!DOCTYPE svg PUBLIC "-//W3C//DTD SVG 1.1//EN"
 "http://www.w3.org/Graphics/SVG/1.1/DTD/svg11.dtd">
<!-- Generated by graphviz version 2.38.0 (20140413.2041)
 -->
<!-- Title: classes_demo_SVP_script_name Pages: 1 -->
<svg width="1968pt" height="221pt"
 viewBox="0.00 0.00 1968.00 221.00" xmlns="http://www.w3.org/2000/svg" xmlns:xlink="http://www.w3.org/1999/xlink">
<g id="graph0" class="graph" transform="scale(1 1) rotate(0) translate(4 217)">
<title>classes_demo_SVP_script_name</title>
<polygon fill="white" stroke="none" points="-4,4 -4,-217 1964,-217 1964,4 -4,4"/>
<!-- 0 -->
<g id="node1" class="node"><title>0</title>
<polygon fill="none" stroke="black" points="204.5,-176.5 204.5,-212.5 368.5,-212.5 368.5,-176.5 204.5,-176.5"/>
<text text-anchor="middle" x="286.5" y="-190.8" font-family="Times New Roman,serif" font-size="14.00" fill="red">exceptions.BaseException</text>
</g>
<!-- 1 -->
<g id="node2" class="node"><title>1</title>
<polygon fill="none" stroke="black" points="218,-88.5 218,-124.5 355,-124.5 355,-88.5 218,-88.5"/>
<text text-anchor="middle" x="286.5" y="-102.8" font-family="Times New Roman,serif" font-size="14.00" fill="red">exceptions.Exception</text>
</g>
<!-- 1&#45;&gt;0 -->
<g id="edge1" class="edge"><title>1&#45;&gt;0</title>
<path fill="none" stroke="black" d="M286.5,-124.903C286.5,-136.754 286.5,-152.683 286.5,-166.208"/>
<polygon fill="none" stroke="black" points="283,-166.416 286.5,-176.416 290,-166.416 283,-166.416"/>
</g>
<!-- 2 -->
<g id="node3" class="node"><title>2</title>
<polygon fill="none" stroke="black" points="432,-88.5 432,-124.5 529,-124.5 529,-88.5 432,-88.5"/>
<text text-anchor="middle" x="480.5" y="-102.8" font-family="Times New Roman,serif" font-size="14.00">itertools.count</text>
</g>
<!-- 6 -->
<g id="node7" class="node"><title>6</title>
<polygon fill="none" stroke="black" points="754,-176.5 754,-212.5 955,-212.5 955,-176.5 754,-176.5"/>
<text text-anchor="middle" x="854.5" y="-190.8" font-family="Times New Roman,serif" font-size="14.00">multiprocessing.process.Process</text>
</g>
<!-- 2&#45;&gt;6 -->
<g id="edge9" class="edge"><title>2&#45;&gt;6</title>
<path fill="none" stroke="black" d="M529.168,-122.439C532.319,-123.328 535.451,-124.189 538.5,-125 609.851,-143.975 691.296,-161.533 753.63,-174.122"/>
<polygon fill="black" stroke="black" points="753.671,-174.13 760.341,-171.39 765.436,-176.493 758.766,-179.234 753.671,-174.13"/>
<text text-anchor="middle" x="702.5" y="-146.8" font-family="Times New Roman,serif" font-size="14.00" fill="green">_counter</text>
</g>
<!-- 3 -->
<g id="node4" class="node"><title>3</title>
<polygon fill="none" stroke="black" points="1156.5,-88.5 1156.5,-124.5 1344.5,-124.5 1344.5,-88.5 1156.5,-88.5"/>
<text text-anchor="middle" x="1250.5" y="-102.8" font-family="Times New Roman,serif" font-size="14.00">multiprocessing.forking.Popen</text>
</g>
<!-- 3&#45;&gt;6 -->
<g id="edge10" class="edge"><title>3&#45;&gt;6</title>
<path fill="none" stroke="black" d="M1175.48,-124.539C1131.52,-134.455 1074.9,-147.108 1024.5,-158 1000.06,-163.282 973.615,-168.867 949.029,-174.005"/>
<polygon fill="black" stroke="black" points="948.872,-174.037 943.815,-179.178 937.125,-176.488 942.182,-171.347 948.872,-174.037"/>
<text text-anchor="middle" x="1115" y="-146.8" font-family="Times New Roman,serif" font-size="14.00" fill="green">_popen</text>
</g>
<!-- 4 -->
<g id="node5" class="node"><title>4</title>
<polygon fill="none" stroke="black" points="547.5,-88.5 547.5,-124.5 735.5,-124.5 735.5,-88.5 547.5,-88.5"/>
<text text-anchor="middle" x="641.5" y="-102.8" font-family="Times New Roman,serif" font-size="14.00">multiprocessing.forking.Popen</text>
</g>
<!-- 4&#45;&gt;6 -->
<g id="edge11" class="edge"><title>4&#45;&gt;6</title>
<path fill="none" stroke="black" d="M683.837,-124.594C717.445,-138.163 764.646,-157.221 800.891,-171.855"/>
<polygon fill="black" stroke="black" points="801.116,-171.946 808.177,-170.483 812.244,-176.439 805.182,-177.901 801.116,-171.946"/>
<text text-anchor="middle" x="783" y="-146.8" font-family="Times New Roman,serif" font-size="14.00" fill="green">_popen</text>
</g>
<!-- 5 -->
<g id="node6" class="node"><title>5</title>
<polygon fill="none" stroke="black" points="869,-88.5 869,-124.5 1138,-124.5 1138,-88.5 869,-88.5"/>
<text text-anchor="middle" x="1003.5" y="-102.8" font-family="Times New Roman,serif" font-size="14.00">multiprocessing.process.AuthenticationString</text>
</g>
<!-- 5&#45;&gt;6 -->
<g id="edge12" class="edge"><title>5&#45;&gt;6</title>
<path fill="none" stroke="black" d="M988.358,-124.803C978.23,-135.528 964.12,-148.94 949.5,-158 941.201,-163.143 932.039,-167.724 922.779,-171.744"/>
<polygon fill="black" stroke="black" points="922.589,-171.822 918.554,-177.798 911.485,-176.371 915.521,-170.395 922.589,-171.822"/>
<text text-anchor="middle" x="995" y="-146.8" font-family="Times New Roman,serif" font-size="14.00" fill="green">_authkey</text>
</g>
<!-- 5&#45;&gt;6 -->
<g id="edge13" class="edge"><title>5&#45;&gt;6</title>
<path fill="none" stroke="black" d="M930.888,-124.525C918.128,-129.323 905.446,-135.384 894.5,-143 885.623,-149.176 877.746,-157.891 871.379,-166.345"/>
<polygon fill="black" stroke="black" points="871.269,-166.503 871.112,-173.713 864.397,-176.341 864.554,-169.131 871.269,-166.503"/>
<text text-anchor="middle" x="920" y="-146.8" font-family="Times New Roman,serif" font-size="14.00" fill="green">_authkey</text>
</g>
<!-- 7 -->
<g id="node8" class="node"><title>7</title>
<polygon fill="none" stroke="black" points="754,-88.5 754,-124.5 851,-124.5 851,-88.5 754,-88.5"/>
<text text-anchor="middle" x="802.5" y="-102.8" font-family="Times New Roman,serif" font-size="14.00">script.Process</text>
</g>
<!-- 7&#45;&gt;6 -->
<g id="edge2" class="edge"><title>7&#45;&gt;6</title>
<path fill="none" stroke="black" d="M813.023,-124.903C820.472,-137.223 830.587,-153.951 838.963,-167.804"/>
<polygon fill="none" stroke="black" points="836.001,-169.67 844.17,-176.416 841.991,-166.048 836.001,-169.67"/>
</g>
<!-- 8 -->
<g id="node9" class="node"><title>8</title>
<polygon fill="none" stroke="black" points="1362.5,-88.5 1362.5,-124.5 1448.5,-124.5 1448.5,-88.5 1362.5,-88.5"/>
<text text-anchor="middle" x="1405.5" y="-102.8" font-family="Times New Roman,serif" font-size="14.00">script.Script</text>
</g>
<!-- 9 -->
<g id="node10" class="node"><title>9</title>
<polygon fill="none" stroke="black" points="1343.5,-0.5 1343.5,-36.5 1467.5,-36.5 1467.5,-0.5 1343.5,-0.5"/>
<text text-anchor="middle" x="1405.5" y="-14.8" font-family="Times New Roman,serif" font-size="14.00">script.ScriptConfig</text>
</g>
<!-- 9&#45;&gt;8 -->
<g id="edge14" class="edge"><title>9&#45;&gt;8</title>
<path fill="none" stroke="black" d="M1405.5,-36.9034C1405.5,-48.1675 1405.5,-63.116 1405.5,-76.1827"/>
<polygon fill="black" stroke="black" points="1405.5,-76.416 1409.5,-82.416 1405.5,-88.416 1401.5,-82.416 1405.5,-76.416"/>
<text text-anchor="middle" x="1423.5" y="-58.8" font-family="Times New Roman,serif" font-size="14.00" fill="green">config</text>
</g>
<!-- 10 -->
<g id="node11" class="node"><title>10</title>
<polygon fill="none" stroke="black" points="0,-0.5 0,-36.5 153,-36.5 153,-0.5 0,-0.5"/>
<text text-anchor="middle" x="76.5" y="-14.8" font-family="Times New Roman,serif" font-size="14.00" fill="red">script.ScriptConfigError</text>
</g>
<!-- 10&#45;&gt;1 -->
<g id="edge3" class="edge"><title>10&#45;&gt;1</title>
<path fill="none" stroke="black" d="M118.24,-36.5937C151.949,-50.3984 199.527,-69.8824 235.493,-84.6114"/>
<polygon fill="none" stroke="black" points="234.258,-87.8878 244.839,-88.4387 236.911,-81.41 234.258,-87.8878"/>
</g>
<!-- 11 -->
<g id="node12" class="node"><title>11</title>
<polygon fill="none" stroke="black" points="171,-0.5 171,-36.5 286,-36.5 286,-0.5 171,-0.5"/>
<text text-anchor="middle" x="228.5" y="-14.8" font-family="Times New Roman,serif" font-size="14.00" fill="red">script.ScriptError</text>
</g>
<!-- 11&#45;&gt;1 -->
<g id="edge4" class="edge"><title>11&#45;&gt;1</title>
<path fill="none" stroke="black" d="M240.237,-36.9034C248.546,-49.2235 259.828,-65.9512 269.17,-79.8035"/>
<polygon fill="none" stroke="black" points="266.485,-82.0823 274.978,-88.416 272.289,-78.1682 266.485,-82.0823"/>
</g>
<!-- 12 -->
<g id="node13" class="node"><title>12</title>
<polygon fill="none" stroke="black" points="304.5,-0.5 304.5,-36.5 410.5,-36.5 410.5,-0.5 304.5,-0.5"/>
<text text-anchor="middle" x="357.5" y="-14.8" font-family="Times New Roman,serif" font-size="14.00" fill="red">script.ScriptFail</text>
</g>
<!-- 12&#45;&gt;1 -->
<g id="edge5" class="edge"><title>12&#45;&gt;1</title>
<path fill="none" stroke="black" d="M343.132,-36.9034C332.767,-49.4581 318.623,-66.5901 307.064,-80.5919"/>
<polygon fill="none" stroke="black" points="304.272,-78.4762 300.604,-88.416 309.67,-82.9327 304.272,-78.4762"/>
</g>
<!-- 13 -->
<g id="node14" class="node"><title>13</title>
<polygon fill="none" stroke="black" points="1520,-88.5 1520,-124.5 1629,-124.5 1629,-88.5 1520,-88.5"/>
<text text-anchor="middle" x="1574.5" y="-102.8" font-family="Times New Roman,serif" font-size="14.00">script.ScriptInfo</text>
</g>
<!-- 14 -->
<g id="node15" class="node"><title>14</title>
<polygon fill="none" stroke="black" points="1682,-0.5 1682,-36.5 1823,-36.5 1823,-0.5 1682,-0.5"/>
<text text-anchor="middle" x="1752.5" y="-14.8" font-family="Times New Roman,serif" font-size="14.00">script.ScriptParamDef</text>
</g>
<!-- 15 -->
<g id="node16" class="node"><title>15</title>
<polygon fill="none" stroke="black" points="428.5,-0.5 428.5,-36.5 578.5,-36.5 578.5,-0.5 428.5,-0.5"/>
<text text-anchor="middle" x="503.5" y="-14.8" font-family="Times New Roman,serif" font-size="14.00" fill="red">script.ScriptParamError</text>
</g>
<!-- 15&#45;&gt;1 -->
<g id="edge6" class="edge"><title>15&#45;&gt;1</title>
<path fill="none" stroke="black" d="M460.368,-36.5937C425.536,-50.3984 376.372,-69.8824 339.207,-84.6114"/>
<polygon fill="none" stroke="black" points="337.557,-81.5005 329.55,-88.4387 340.136,-88.0081 337.557,-81.5005"/>
</g>
<!-- 16 -->
<g id="node17" class="node"><title>16</title>
<polygon fill="none" stroke="black" points="1485.5,-0.5 1485.5,-36.5 1663.5,-36.5 1663.5,-0.5 1485.5,-0.5"/>
<text text-anchor="middle" x="1574.5" y="-14.8" font-family="Times New Roman,serif" font-size="14.00">script.ScriptParamGroupDef</text>
</g>
<!-- 16&#45;&gt;13 -->
<g id="edge15" class="edge"><title>16&#45;&gt;13</title>
<path fill="none" stroke="black" d="M1574.5,-36.9034C1574.5,-48.1675 1574.5,-63.116 1574.5,-76.1827"/>
<polygon fill="black" stroke="black" points="1574.5,-76.416 1578.5,-82.416 1574.5,-88.416 1570.5,-82.416 1574.5,-76.416"/>
<text text-anchor="middle" x="1608" y="-58.8" font-family="Times New Roman,serif" font-size="14.00" fill="green">param_defs</text>
</g>
<!-- 17 -->
<g id="node18" class="node"><title>17</title>
<polygon fill="none" stroke="black" points="1841,-0.5 1841,-36.5 1960,-36.5 1960,-0.5 1841,-0.5"/>
<text text-anchor="middle" x="1900.5" y="-14.8" font-family="Times New Roman,serif" font-size="14.00">script.ScriptTimer</text>
</g>
<!-- 18 -->
<g id="node19" class="node"><title>18</title>
<polygon fill="none" stroke="black" points="755,-0.5 755,-36.5 850,-36.5 850,-0.5 755,-0.5"/>
<text text-anchor="middle" x="802.5" y="-14.8" font-family="Times New Roman,serif" font-size="14.00">script._Popen</text>
</g>
<!-- 18&#45;&gt;3 -->
<g id="edge7" class="edge"><title>18&#45;&gt;3</title>
<path fill="none" stroke="black" d="M850.02,-28.6221C921.395,-42.3235 1057.87,-68.5223 1151.5,-86.4949"/>
<polygon fill="none" stroke="black" points="1151.07,-89.9777 1161.56,-88.4257 1152.39,-83.1032 1151.07,-89.9777"/>
</g>
<!-- 18&#45;&gt;4 -->
<g id="edge8" class="edge"><title>18&#45;&gt;4</title>
<path fill="none" stroke="black" d="M770.306,-36.6967C744.995,-50.2167 709.574,-69.1374 682.281,-83.7163"/>
<polygon fill="none" stroke="black" points="680.535,-80.6811 673.363,-88.4799 683.833,-86.8554 680.535,-80.6811"/>
</g>
<!-- 18&#45;&gt;7 -->
<g id="edge16" class="edge"><title>18&#45;&gt;7</title>
<path fill="none" stroke="black" d="M802.5,-36.9034C802.5,-48.1675 802.5,-63.116 802.5,-76.1827"/>
<polygon fill="black" stroke="black" points="802.5,-76.416 806.5,-82.416 802.5,-88.416 798.5,-82.416 802.5,-76.416"/>
<text text-anchor="middle" x="824.5" y="-58.8" font-family="Times New Roman,serif" font-size="14.00" fill="green">_Popen</text>
</g>
<!-- 19 -->
<g id="node20" class="node"><title>19</title>
<polygon fill="none" stroke="black" points="597,-0.5 597,-36.5 686,-36.5 686,-0.5 597,-0.5"/>
<text text-anchor="middle" x="641.5" y="-14.8" font-family="Times New Roman,serif" font-size="14.00">thread._local</text>
</g>
<!-- 19&#45;&gt;4 -->
<g id="edge17" class="edge"><title>19&#45;&gt;4</title>
<path fill="none" stroke="black" d="M641.5,-36.9034C641.5,-48.1675 641.5,-63.116 641.5,-76.1827"/>
<polygon fill="black" stroke="black" points="641.5,-76.416 645.5,-82.416 641.5,-88.416 637.5,-82.416 641.5,-76.416"/>
<text text-anchor="middle" x="652" y="-58.8" font-family="Times New Roman,serif" font-size="14.00" fill="green">_tls</text>
</g>
</g>
</svg>
