<?xml version="1.0" encoding="UTF-8" standalone="no"?>
<!DOCTYPE svg PUBLIC "-//W3C//DTD SVG 1.1//EN"
 "http://www.w3.org/Graphics/SVG/1.1/DTD/svg11.dtd">
<!-- Generated by graphviz version 2.38.0 (20140413.2041)
 -->
<!-- Title: classes_demo_SVP_script_0 Pages: 1 -->
<svg width="2066pt" height="1340pt"
 viewBox="0.00 0.00 2066.00 1340.00" xmlns="http://www.w3.org/2000/svg" xmlns:xlink="http://www.w3.org/1999/xlink">
<g id="graph0" class="graph" transform="scale(1 1) rotate(0) translate(4 1336)">
<title>classes_demo_SVP_script_0</title>
<polygon fill="white" stroke="none" points="-4,4 -4,-1336 2062,-1336 2062,4 -4,4"/>
<!-- 0 -->
<g id="node1" class="node"><title>0</title>
<polygon fill="none" stroke="black" points="210.5,-1187 210.5,-1257 374.5,-1257 374.5,-1187 210.5,-1187"/>
<text text-anchor="middle" x="292.5" y="-1241.8" font-family="Times New Roman,serif" font-size="14.00" fill="red">exceptions.BaseException</text>
<polyline fill="none" stroke="black" points="210.5,-1234 374.5,-1234 "/>
<polyline fill="none" stroke="black" points="210.5,-1210 374.5,-1210 "/>
<text text-anchor="middle" x="292.5" y="-1194.8" font-family="Times New Roman,serif" font-size="14.00" fill="red"> </text>
</g>
<!-- 1 -->
<g id="node2" class="node"><title>1</title>
<polygon fill="none" stroke="black" points="224,-751 224,-821 361,-821 361,-751 224,-751"/>
<text text-anchor="middle" x="292.5" y="-805.8" font-family="Times New Roman,serif" font-size="14.00" fill="red">exceptions.Exception</text>
<polyline fill="none" stroke="black" points="224,-798 361,-798 "/>
<polyline fill="none" stroke="black" points="224,-774 361,-774 "/>
<text text-anchor="middle" x="292.5" y="-758.8" font-family="Times New Roman,serif" font-size="14.00" fill="red"> </text>
</g>
<!-- 1&#45;&gt;0 -->
<g id="edge1" class="edge"><title>1&#45;&gt;0</title>
<path fill="none" stroke="black" d="M292.5,-821.055C292.5,-898.92 292.5,-1089.92 292.5,-1176.75"/>
<polygon fill="none" stroke="black" points="289,-1176.8 292.5,-1186.8 296,-1176.8 289,-1176.8"/>
</g>
<!-- 2 -->
<g id="node3" class="node"><title>2</title>
<polygon fill="none" stroke="black" points="451,-751 451,-821 548,-821 548,-751 451,-751"/>
<text text-anchor="middle" x="499.5" y="-805.8" font-family="Times New Roman,serif" font-size="14.00">itertools.count</text>
<polyline fill="none" stroke="black" points="451,-798 548,-798 "/>
<polyline fill="none" stroke="black" points="451,-774 548,-774 "/>
<text text-anchor="start" x="459" y="-758.8" font-family="Times New Roman,serif" font-size="14.00">next()</text>
</g>
<!-- 6 -->
<g id="node7" class="node"><title>6</title>
<polygon fill="none" stroke="black" points="773,-1112.5 773,-1331.5 974,-1331.5 974,-1112.5 773,-1112.5"/>
<text text-anchor="middle" x="873.5" y="-1316.3" font-family="Times New Roman,serif" font-size="14.00">multiprocessing.process.Process</text>
<polyline fill="none" stroke="black" points="773,-1308.5 974,-1308.5 "/>
<text text-anchor="start" x="781" y="-1293.3" font-family="Times New Roman,serif" font-size="14.00">authkey</text>
<text text-anchor="start" x="781" y="-1278.3" font-family="Times New Roman,serif" font-size="14.00">daemon</text>
<text text-anchor="start" x="781" y="-1263.3" font-family="Times New Roman,serif" font-size="14.00">exitcode</text>
<text text-anchor="start" x="781" y="-1248.3" font-family="Times New Roman,serif" font-size="14.00">ident</text>
<text text-anchor="start" x="781" y="-1233.3" font-family="Times New Roman,serif" font-size="14.00">name</text>
<text text-anchor="start" x="781" y="-1218.3" font-family="Times New Roman,serif" font-size="14.00">name</text>
<text text-anchor="start" x="781" y="-1203.3" font-family="Times New Roman,serif" font-size="14.00">pid</text>
<polyline fill="none" stroke="black" points="773,-1195.5 974,-1195.5 "/>
<text text-anchor="start" x="781" y="-1180.3" font-family="Times New Roman,serif" font-size="14.00">is_alive()</text>
<text text-anchor="start" x="781" y="-1165.3" font-family="Times New Roman,serif" font-size="14.00">join()</text>
<text text-anchor="start" x="781" y="-1150.3" font-family="Times New Roman,serif" font-size="14.00">run()</text>
<text text-anchor="start" x="781" y="-1135.3" font-family="Times New Roman,serif" font-size="14.00">start()</text>
<text text-anchor="start" x="781" y="-1120.3" font-family="Times New Roman,serif" font-size="14.00">terminate()</text>
</g>
<!-- 2&#45;&gt;6 -->
<g id="edge9" class="edge"><title>2&#45;&gt;6</title>
<path fill="none" stroke="black" d="M497.775,-821.172C496.74,-877.144 502.383,-989.296 557.5,-1061 607.909,-1126.58 692.587,-1167.42 761.605,-1191.41"/>
<polygon fill="black" stroke="black" points="761.611,-1191.41 768.577,-1189.55 772.977,-1195.26 766.011,-1197.12 761.611,-1191.41"/>
<text text-anchor="middle" x="608.5" y="-1082.8" font-family="Times New Roman,serif" font-size="14.00" fill="green">_counter</text>
</g>
<!-- 3 -->
<g id="node4" class="node"><title>3</title>
<polygon fill="none" stroke="black" points="1175.5,-721.5 1175.5,-850.5 1363.5,-850.5 1363.5,-721.5 1175.5,-721.5"/>
<text text-anchor="middle" x="1269.5" y="-835.3" font-family="Times New Roman,serif" font-size="14.00">multiprocessing.forking.Popen</text>
<polyline fill="none" stroke="black" points="1175.5,-827.5 1363.5,-827.5 "/>
<text text-anchor="start" x="1183.5" y="-812.3" font-family="Times New Roman,serif" font-size="14.00">pid</text>
<text text-anchor="start" x="1183.5" y="-797.3" font-family="Times New Roman,serif" font-size="14.00">returncode : NoneType</text>
<polyline fill="none" stroke="black" points="1175.5,-789.5 1363.5,-789.5 "/>
<text text-anchor="start" x="1183.5" y="-774.3" font-family="Times New Roman,serif" font-size="14.00">poll()</text>
<text text-anchor="start" x="1183.5" y="-759.3" font-family="Times New Roman,serif" font-size="14.00">terminate()</text>
<text text-anchor="start" x="1183.5" y="-744.3" font-family="Times New Roman,serif" font-size="14.00">thread_is_spawning()</text>
<text text-anchor="start" x="1183.5" y="-729.3" font-family="Times New Roman,serif" font-size="14.00">wait()</text>
</g>
<!-- 3&#45;&gt;6 -->
<g id="edge10" class="edge"><title>3&#45;&gt;6</title>
<path fill="none" stroke="black" d="M1258.52,-850.629C1245.35,-910.769 1218.11,-1000.55 1165.5,-1061 1117.54,-1116.11 1045.77,-1155.8 985.38,-1181.87"/>
<polygon fill="black" stroke="black" points="985.298,-1181.9 981.33,-1187.92 974.246,-1186.58 978.214,-1180.56 985.298,-1181.9"/>
<text text-anchor="middle" x="1169" y="-1082.8" font-family="Times New Roman,serif" font-size="14.00" fill="green">_popen</text>
</g>
<!-- 4 -->
<g id="node5" class="node"><title>4</title>
<polygon fill="none" stroke="black" points="566.5,-714 566.5,-858 754.5,-858 754.5,-714 566.5,-714"/>
<text text-anchor="middle" x="660.5" y="-842.8" font-family="Times New Roman,serif" font-size="14.00">multiprocessing.forking.Popen</text>
<polyline fill="none" stroke="black" points="566.5,-835 754.5,-835 "/>
<text text-anchor="start" x="574.5" y="-819.8" font-family="Times New Roman,serif" font-size="14.00">pid</text>
<text text-anchor="start" x="574.5" y="-804.8" font-family="Times New Roman,serif" font-size="14.00">returncode : int, NoneType</text>
<polyline fill="none" stroke="black" points="566.5,-797 754.5,-797 "/>
<text text-anchor="start" x="574.5" y="-781.8" font-family="Times New Roman,serif" font-size="14.00">duplicate_for_child()</text>
<text text-anchor="start" x="574.5" y="-766.8" font-family="Times New Roman,serif" font-size="14.00">poll()</text>
<text text-anchor="start" x="574.5" y="-751.8" font-family="Times New Roman,serif" font-size="14.00">terminate()</text>
<text text-anchor="start" x="574.5" y="-736.8" font-family="Times New Roman,serif" font-size="14.00">thread_is_spawning()</text>
<text text-anchor="start" x="574.5" y="-721.8" font-family="Times New Roman,serif" font-size="14.00">wait()</text>
</g>
<!-- 4&#45;&gt;6 -->
<g id="edge11" class="edge"><title>4&#45;&gt;6</title>
<path fill="none" stroke="black" d="M682.009,-858.277C700.306,-914.803 729.059,-994.995 763.5,-1061 770.583,-1074.57 778.616,-1088.37 787.038,-1101.88"/>
<polygon fill="black" stroke="black" points="787.12,-1102.01 793.711,-1104.94 793.545,-1112.14 786.954,-1109.22 787.12,-1102.01"/>
<text text-anchor="middle" x="804" y="-1082.8" font-family="Times New Roman,serif" font-size="14.00" fill="green">_popen</text>
</g>
<!-- 5 -->
<g id="node6" class="node"><title>5</title>
<polygon fill="none" stroke="black" points="888,-751 888,-821 1157,-821 1157,-751 888,-751"/>
<text text-anchor="middle" x="1022.5" y="-805.8" font-family="Times New Roman,serif" font-size="14.00">multiprocessing.process.AuthenticationString</text>
<polyline fill="none" stroke="black" points="888,-798 1157,-798 "/>
<polyline fill="none" stroke="black" points="888,-774 1157,-774 "/>
<text text-anchor="middle" x="1022.5" y="-758.8" font-family="Times New Roman,serif" font-size="14.00"> </text>
</g>
<!-- 5&#45;&gt;6 -->
<g id="edge12" class="edge"><title>5&#45;&gt;6</title>
<path fill="none" stroke="black" d="M1021.62,-821.174C1019.02,-879.472 1008.78,-1000.87 968.5,-1094 967.412,-1096.52 966.265,-1099.03 965.066,-1101.53"/>
<polygon fill="black" stroke="black" points="964.944,-1101.77 965.778,-1108.93 959.487,-1112.46 958.653,-1105.29 964.944,-1101.77"/>
<text text-anchor="middle" x="998" y="-1082.8" font-family="Times New Roman,serif" font-size="14.00" fill="green">_authkey</text>
</g>
<!-- 5&#45;&gt;6 -->
<g id="edge13" class="edge"><title>5&#45;&gt;6</title>
<path fill="none" stroke="black" d="M1008.65,-821.285C986.978,-875.514 944.35,-984.62 913.5,-1079 911.202,-1086.03 908.914,-1093.28 906.662,-1100.61"/>
<polygon fill="black" stroke="black" points="906.637,-1100.7 908.726,-1107.6 903.158,-1112.18 901.069,-1105.28 906.637,-1100.7"/>
<text text-anchor="middle" x="939" y="-1082.8" font-family="Times New Roman,serif" font-size="14.00" fill="green">_authkey</text>
</g>
<!-- 7 -->
<g id="node8" class="node"><title>7</title>
<polygon fill="none" stroke="black" points="773,-751 773,-821 870,-821 870,-751 773,-751"/>
<text text-anchor="middle" x="821.5" y="-805.8" font-family="Times New Roman,serif" font-size="14.00">script.Process</text>
<polyline fill="none" stroke="black" points="773,-798 870,-798 "/>
<polyline fill="none" stroke="black" points="773,-774 870,-774 "/>
<text text-anchor="middle" x="821.5" y="-758.8" font-family="Times New Roman,serif" font-size="14.00"> </text>
</g>
<!-- 7&#45;&gt;6 -->
<g id="edge2" class="edge"><title>7&#45;&gt;6</title>
<path fill="none" stroke="black" d="M825.58,-821.055C832.749,-880.884 847.92,-1007.51 859.283,-1102.34"/>
<polygon fill="none" stroke="black" points="855.81,-1102.78 860.475,-1112.29 862.76,-1101.94 855.81,-1102.78"/>
</g>
<!-- 8 -->
<g id="node9" class="node"><title>8</title>
<polygon fill="none" stroke="black" points="1382,-511.5 1382,-1060.5 1537,-1060.5 1537,-511.5 1382,-511.5"/>
<text text-anchor="middle" x="1459.5" y="-1045.3" font-family="Times New Roman,serif" font-size="14.00">script.Script</text>
<polyline fill="none" stroke="black" points="1382,-1037.5 1537,-1037.5 "/>
<text text-anchor="start" x="1390" y="-1022.3" font-family="Times New Roman,serif" font-size="14.00">callback : bool</text>
<text text-anchor="start" x="1390" y="-1007.3" font-family="Times New Roman,serif" font-size="14.00">config : NoneType</text>
<text text-anchor="start" x="1390" y="-992.3" font-family="Times New Roman,serif" font-size="14.00">desc : NoneType</text>
<text text-anchor="start" x="1390" y="-977.3" font-family="Times New Roman,serif" font-size="14.00">env : NoneType, dict</text>
<text text-anchor="start" x="1390" y="-962.3" font-family="Times New Roman,serif" font-size="14.00">info : NoneType</text>
<text text-anchor="start" x="1390" y="-947.3" font-family="Times New Roman,serif" font-size="14.00">name : NoneType</text>
<text text-anchor="start" x="1390" y="-932.3" font-family="Times New Roman,serif" font-size="14.00">param_defs : NoneType</text>
<text text-anchor="start" x="1390" y="-917.3" font-family="Times New Roman,serif" font-size="14.00">params : dict, NoneType</text>
<text text-anchor="start" x="1390" y="-902.3" font-family="Times New Roman,serif" font-size="14.00">timers : list</text>
<polyline fill="none" stroke="black" points="1382,-894.5 1537,-894.5 "/>
<text text-anchor="start" x="1390" y="-879.3" font-family="Times New Roman,serif" font-size="14.00">alert()</text>
<text text-anchor="start" x="1390" y="-864.3" font-family="Times New Roman,serif" font-size="14.00">config_name()</text>
<text text-anchor="start" x="1390" y="-849.3" font-family="Times New Roman,serif" font-size="14.00">confirm()</text>
<text text-anchor="start" x="1390" y="-834.3" font-family="Times New Roman,serif" font-size="14.00">fail()</text>
<text text-anchor="start" x="1390" y="-819.3" font-family="Times New Roman,serif" font-size="14.00">files_dir()</text>
<text text-anchor="start" x="1390" y="-804.3" font-family="Times New Roman,serif" font-size="14.00">group_params()</text>
<text text-anchor="start" x="1390" y="-789.3" font-family="Times New Roman,serif" font-size="14.00">log()</text>
<text text-anchor="start" x="1390" y="-774.3" font-family="Times New Roman,serif" font-size="14.00">log_active_params()</text>
<text text-anchor="start" x="1390" y="-759.3" font-family="Times New Roman,serif" font-size="14.00">log_debug()</text>
<text text-anchor="start" x="1390" y="-744.3" font-family="Times New Roman,serif" font-size="14.00">log_error()</text>
<text text-anchor="start" x="1390" y="-729.3" font-family="Times New Roman,serif" font-size="14.00">log_warning()</text>
<text text-anchor="start" x="1390" y="-714.3" font-family="Times New Roman,serif" font-size="14.00">param_get()</text>
<text text-anchor="start" x="1390" y="-699.3" font-family="Times New Roman,serif" font-size="14.00">param_is_global()</text>
<text text-anchor="start" x="1390" y="-684.3" font-family="Times New Roman,serif" font-size="14.00">param_value()</text>
<text text-anchor="start" x="1390" y="-669.3" font-family="Times New Roman,serif" font-size="14.00">resolve_active()</text>
<text text-anchor="start" x="1390" y="-654.3" font-family="Times New Roman,serif" font-size="14.00">resolve_refs()</text>
<text text-anchor="start" x="1390" y="-639.3" font-family="Times New Roman,serif" font-size="14.00">result()</text>
<text text-anchor="start" x="1390" y="-624.3" font-family="Times New Roman,serif" font-size="14.00">result_dir()</text>
<text text-anchor="start" x="1390" y="-609.3" font-family="Times New Roman,serif" font-size="14.00">result_file()</text>
<text text-anchor="start" x="1390" y="-594.3" font-family="Times New Roman,serif" font-size="14.00">result_file_path()</text>
<text text-anchor="start" x="1390" y="-579.3" font-family="Times New Roman,serif" font-size="14.00">results_dir()</text>
<text text-anchor="start" x="1390" y="-564.3" font-family="Times New Roman,serif" font-size="14.00">sleep()</text>
<text text-anchor="start" x="1390" y="-549.3" font-family="Times New Roman,serif" font-size="14.00">svp_version()</text>
<text text-anchor="start" x="1390" y="-534.3" font-family="Times New Roman,serif" font-size="14.00">timer_cancel()</text>
<text text-anchor="start" x="1390" y="-519.3" font-family="Times New Roman,serif" font-size="14.00">timer_start()</text>
</g>
<!-- 9 -->
<g id="node10" class="node"><title>9</title>
<polygon fill="none" stroke="black" points="1382,-120.5 1382,-339.5 1537,-339.5 1537,-120.5 1382,-120.5"/>
<text text-anchor="middle" x="1459.5" y="-324.3" font-family="Times New Roman,serif" font-size="14.00">script.ScriptConfig</text>
<polyline fill="none" stroke="black" points="1382,-316.5 1537,-316.5 "/>
<text text-anchor="start" x="1390" y="-301.3" font-family="Times New Roman,serif" font-size="14.00">desc : NoneType</text>
<text text-anchor="start" x="1390" y="-286.3" font-family="Times New Roman,serif" font-size="14.00">filename : NoneType</text>
<text text-anchor="start" x="1390" y="-271.3" font-family="Times New Roman,serif" font-size="14.00">name : NoneType</text>
<text text-anchor="start" x="1390" y="-256.3" font-family="Times New Roman,serif" font-size="14.00">params : dict, NoneType</text>
<text text-anchor="start" x="1390" y="-241.3" font-family="Times New Roman,serif" font-size="14.00">script : NoneType</text>
<polyline fill="none" stroke="black" points="1382,-233.5 1537,-233.5 "/>
<text text-anchor="start" x="1390" y="-218.3" font-family="Times New Roman,serif" font-size="14.00">from_xml()</text>
<text text-anchor="start" x="1390" y="-203.3" font-family="Times New Roman,serif" font-size="14.00">param_add_default()</text>
<text text-anchor="start" x="1390" y="-188.3" font-family="Times New Roman,serif" font-size="14.00">param_value()</text>
<text text-anchor="start" x="1390" y="-173.3" font-family="Times New Roman,serif" font-size="14.00">params_to_xml()</text>
<text text-anchor="start" x="1390" y="-158.3" font-family="Times New Roman,serif" font-size="14.00">to_xml()</text>
<text text-anchor="start" x="1390" y="-143.3" font-family="Times New Roman,serif" font-size="14.00">to_xml_file()</text>
<text text-anchor="start" x="1390" y="-128.3" font-family="Times New Roman,serif" font-size="14.00">to_xml_str()</text>
</g>
<!-- 9&#45;&gt;8 -->
<g id="edge14" class="edge"><title>9&#45;&gt;8</title>
<path fill="none" stroke="black" d="M1459.5,-339.792C1459.5,-386.053 1459.5,-442.388 1459.5,-499.217"/>
<polygon fill="black" stroke="black" points="1459.5,-499.348 1463.5,-505.348 1459.5,-511.348 1455.5,-505.348 1459.5,-499.348"/>
<text text-anchor="middle" x="1477.5" y="-481.8" font-family="Times New Roman,serif" font-size="14.00" fill="green">config</text>
</g>
<!-- 10 -->
<g id="node11" class="node"><title>10</title>
<polygon fill="none" stroke="black" points="0,-195 0,-265 153,-265 153,-195 0,-195"/>
<text text-anchor="middle" x="76.5" y="-249.8" font-family="Times New Roman,serif" font-size="14.00" fill="red">script.ScriptConfigError</text>
<polyline fill="none" stroke="black" points="0,-242 153,-242 "/>
<polyline fill="none" stroke="black" points="0,-218 153,-218 "/>
<text text-anchor="middle" x="76.5" y="-202.8" font-family="Times New Roman,serif" font-size="14.00" fill="red"> </text>
</g>
<!-- 10&#45;&gt;1 -->
<g id="edge3" class="edge"><title>10&#45;&gt;1</title>
<path fill="none" stroke="black" d="M88.8782,-265.253C105.17,-310.124 134.866,-391.186 161.5,-460 200.685,-561.243 248.896,-679.262 274.508,-741.472"/>
<polygon fill="none" stroke="black" points="271.374,-743.053 278.42,-750.966 277.846,-740.387 271.374,-743.053"/>
</g>
<!-- 11 -->
<g id="node12" class="node"><title>11</title>
<polygon fill="none" stroke="black" points="171,-195 171,-265 286,-265 286,-195 171,-195"/>
<text text-anchor="middle" x="228.5" y="-249.8" font-family="Times New Roman,serif" font-size="14.00" fill="red">script.ScriptError</text>
<polyline fill="none" stroke="black" points="171,-242 286,-242 "/>
<polyline fill="none" stroke="black" points="171,-218 286,-218 "/>
<text text-anchor="middle" x="228.5" y="-202.8" font-family="Times New Roman,serif" font-size="14.00" fill="red"> </text>
</g>
<!-- 11&#45;&gt;1 -->
<g id="edge4" class="edge"><title>11&#45;&gt;1</title>
<path fill="none" stroke="black" d="M232.455,-265.237C243.559,-361.353 275.014,-633.635 287.399,-740.843"/>
<polygon fill="none" stroke="black" points="283.947,-741.459 288.571,-750.991 290.9,-740.656 283.947,-741.459"/>
</g>
<!-- 12 -->
<g id="node13" class="node"><title>12</title>
<polygon fill="none" stroke="black" points="304.5,-195 304.5,-265 410.5,-265 410.5,-195 304.5,-195"/>
<text text-anchor="middle" x="357.5" y="-249.8" font-family="Times New Roman,serif" font-size="14.00" fill="red">script.ScriptFail</text>
<polyline fill="none" stroke="black" points="304.5,-242 410.5,-242 "/>
<polyline fill="none" stroke="black" points="304.5,-218 410.5,-218 "/>
<text text-anchor="middle" x="357.5" y="-202.8" font-family="Times New Roman,serif" font-size="14.00" fill="red"> </text>
</g>
<!-- 12&#45;&gt;1 -->
<g id="edge5" class="edge"><title>12&#45;&gt;1</title>
<path fill="none" stroke="black" d="M353.483,-265.237C342.206,-361.353 310.259,-633.635 297.681,-740.843"/>
<polygon fill="none" stroke="black" points="294.179,-740.652 296.49,-750.991 301.132,-741.467 294.179,-740.652"/>
</g>
<!-- 13 -->
<g id="node14" class="node"><title>13</title>
<polygon fill="none" stroke="black" points="1570,-684 1570,-888 1719,-888 1719,-684 1570,-684"/>
<text text-anchor="middle" x="1644.5" y="-872.8" font-family="Times New Roman,serif" font-size="14.00">script.ScriptInfo</text>
<polyline fill="none" stroke="black" points="1570,-865 1719,-865 "/>
<text text-anchor="start" x="1578" y="-849.8" font-family="Times New Roman,serif" font-size="14.00">desc : NoneType</text>
<text text-anchor="start" x="1578" y="-834.8" font-family="Times New Roman,serif" font-size="14.00">label : NoneType</text>
<text text-anchor="start" x="1578" y="-819.8" font-family="Times New Roman,serif" font-size="14.00">logos : list</text>
<text text-anchor="start" x="1578" y="-804.8" font-family="Times New Roman,serif" font-size="14.00">name : NoneType</text>
<text text-anchor="start" x="1578" y="-789.8" font-family="Times New Roman,serif" font-size="14.00">param_defs</text>
<text text-anchor="start" x="1578" y="-774.8" font-family="Times New Roman,serif" font-size="14.00">run : NoneType</text>
<text text-anchor="start" x="1578" y="-759.8" font-family="Times New Roman,serif" font-size="14.00">version : str, NoneType</text>
<polyline fill="none" stroke="black" points="1570,-752 1719,-752 "/>
<text text-anchor="start" x="1578" y="-736.8" font-family="Times New Roman,serif" font-size="14.00">logo()</text>
<text text-anchor="start" x="1578" y="-721.8" font-family="Times New Roman,serif" font-size="14.00">param()</text>
<text text-anchor="start" x="1578" y="-706.8" font-family="Times New Roman,serif" font-size="14.00">param_add_value()</text>
<text text-anchor="start" x="1578" y="-691.8" font-family="Times New Roman,serif" font-size="14.00">param_group()</text>
</g>
<!-- 14 -->
<g id="node15" class="node"><title>14</title>
<polygon fill="none" stroke="black" points="1752,-53 1752,-407 1921,-407 1921,-53 1752,-53"/>
<text text-anchor="middle" x="1836.5" y="-391.8" font-family="Times New Roman,serif" font-size="14.00">script.ScriptParamDef</text>
<polyline fill="none" stroke="black" points="1752,-384 1921,-384 "/>
<text text-anchor="start" x="1760" y="-368.8" font-family="Times New Roman,serif" font-size="14.00">active : NoneType</text>
<text text-anchor="start" x="1760" y="-353.8" font-family="Times New Roman,serif" font-size="14.00">active_value : NoneType</text>
<text text-anchor="start" x="1760" y="-338.8" font-family="Times New Roman,serif" font-size="14.00">default : NoneType</text>
<text text-anchor="start" x="1760" y="-323.8" font-family="Times New Roman,serif" font-size="14.00">desc : NoneType</text>
<text text-anchor="start" x="1760" y="-308.8" font-family="Times New Roman,serif" font-size="14.00">entries : list</text>
<text text-anchor="start" x="1760" y="-293.8" font-family="Times New Roman,serif" font-size="14.00">glob : bool</text>
<text text-anchor="start" x="1760" y="-278.8" font-family="Times New Roman,serif" font-size="14.00">index_count : NoneType</text>
<text text-anchor="start" x="1760" y="-263.8" font-family="Times New Roman,serif" font-size="14.00">index_start : int, NoneType</text>
<text text-anchor="start" x="1760" y="-248.8" font-family="Times New Roman,serif" font-size="14.00">label : NoneType</text>
<text text-anchor="start" x="1760" y="-233.8" font-family="Times New Roman,serif" font-size="14.00">name : NoneType</text>
<text text-anchor="start" x="1760" y="-218.8" font-family="Times New Roman,serif" font-size="14.00">parent : NoneType</text>
<text text-anchor="start" x="1760" y="-203.8" font-family="Times New Roman,serif" font-size="14.00">ptype : NoneType</text>
<text text-anchor="start" x="1760" y="-188.8" font-family="Times New Roman,serif" font-size="14.00">qname : NoneType</text>
<text text-anchor="start" x="1760" y="-173.8" font-family="Times New Roman,serif" font-size="14.00">referenced : bool</text>
<text text-anchor="start" x="1760" y="-158.8" font-family="Times New Roman,serif" font-size="14.00">value : dict, NoneType</text>
<text text-anchor="start" x="1760" y="-143.8" font-family="Times New Roman,serif" font-size="14.00">values : list, NoneType</text>
<text text-anchor="start" x="1760" y="-128.8" font-family="Times New Roman,serif" font-size="14.00">vtype : NoneType</text>
<text text-anchor="start" x="1760" y="-113.8" font-family="Times New Roman,serif" font-size="14.00">width : NoneType</text>
<polyline fill="none" stroke="black" points="1752,-106 1921,-106 "/>
<text text-anchor="start" x="1760" y="-90.8" font-family="Times New Roman,serif" font-size="14.00">active_entry()</text>
<text text-anchor="start" x="1760" y="-75.8" font-family="Times New Roman,serif" font-size="14.00">dump()</text>
<text text-anchor="start" x="1760" y="-60.8" font-family="Times New Roman,serif" font-size="14.00">index_update()</text>
</g>
<!-- 15 -->
<g id="node16" class="node"><title>15</title>
<polygon fill="none" stroke="black" points="428.5,-195 428.5,-265 578.5,-265 578.5,-195 428.5,-195"/>
<text text-anchor="middle" x="503.5" y="-249.8" font-family="Times New Roman,serif" font-size="14.00" fill="red">script.ScriptParamError</text>
<polyline fill="none" stroke="black" points="428.5,-242 578.5,-242 "/>
<polyline fill="none" stroke="black" points="428.5,-218 578.5,-218 "/>
<text text-anchor="middle" x="503.5" y="-202.8" font-family="Times New Roman,serif" font-size="14.00" fill="red"> </text>
</g>
<!-- 15&#45;&gt;1 -->
<g id="edge6" class="edge"><title>15&#45;&gt;1</title>
<path fill="none" stroke="black" d="M491.199,-265.225C475.025,-310.064 445.598,-391.093 419.5,-460 381.21,-561.096 334.591,-679.173 309.86,-741.431"/>
<polygon fill="none" stroke="black" points="306.524,-740.348 306.083,-750.933 313.029,-742.933 306.524,-740.348"/>
</g>
<!-- 16 -->
<g id="node17" class="node"><title>16</title>
<polygon fill="none" stroke="black" points="1555.5,-0.5 1555.5,-459.5 1733.5,-459.5 1733.5,-0.5 1555.5,-0.5"/>
<text text-anchor="middle" x="1644.5" y="-444.3" font-family="Times New Roman,serif" font-size="14.00">script.ScriptParamGroupDef</text>
<polyline fill="none" stroke="black" points="1555.5,-436.5 1733.5,-436.5 "/>
<text text-anchor="start" x="1563.5" y="-421.3" font-family="Times New Roman,serif" font-size="14.00">active : NoneType</text>
<text text-anchor="start" x="1563.5" y="-406.3" font-family="Times New Roman,serif" font-size="14.00">active_value : NoneType</text>
<text text-anchor="start" x="1563.5" y="-391.3" font-family="Times New Roman,serif" font-size="14.00">desc : NoneType</text>
<text text-anchor="start" x="1563.5" y="-376.3" font-family="Times New Roman,serif" font-size="14.00">entries : list</text>
<text text-anchor="start" x="1563.5" y="-361.3" font-family="Times New Roman,serif" font-size="14.00">glob : bool</text>
<text text-anchor="start" x="1563.5" y="-346.3" font-family="Times New Roman,serif" font-size="14.00">index_count : NoneType</text>
<text text-anchor="start" x="1563.5" y="-331.3" font-family="Times New Roman,serif" font-size="14.00">index_start : NoneType, int</text>
<text text-anchor="start" x="1563.5" y="-316.3" font-family="Times New Roman,serif" font-size="14.00">label : NoneType</text>
<text text-anchor="start" x="1563.5" y="-301.3" font-family="Times New Roman,serif" font-size="14.00">name : NoneType</text>
<text text-anchor="start" x="1563.5" y="-286.3" font-family="Times New Roman,serif" font-size="14.00">param_groups : list</text>
<text text-anchor="start" x="1563.5" y="-271.3" font-family="Times New Roman,serif" font-size="14.00">params : list</text>
<text text-anchor="start" x="1563.5" y="-256.3" font-family="Times New Roman,serif" font-size="14.00">parent : NoneType</text>
<text text-anchor="start" x="1563.5" y="-241.3" font-family="Times New Roman,serif" font-size="14.00">qname : NoneType</text>
<polyline fill="none" stroke="black" points="1555.5,-233.5 1733.5,-233.5 "/>
<text text-anchor="start" x="1563.5" y="-218.3" font-family="Times New Roman,serif" font-size="14.00">active_entry()</text>
<text text-anchor="start" x="1563.5" y="-203.3" font-family="Times New Roman,serif" font-size="14.00">dump()</text>
<text text-anchor="start" x="1563.5" y="-188.3" font-family="Times New Roman,serif" font-size="14.00">find()</text>
<text text-anchor="start" x="1563.5" y="-173.3" font-family="Times New Roman,serif" font-size="14.00">find_active()</text>
<text text-anchor="start" x="1563.5" y="-158.3" font-family="Times New Roman,serif" font-size="14.00">param_add()</text>
<text text-anchor="start" x="1563.5" y="-143.3" font-family="Times New Roman,serif" font-size="14.00">param_def_get()</text>
<text text-anchor="start" x="1563.5" y="-128.3" font-family="Times New Roman,serif" font-size="14.00">param_find()</text>
<text text-anchor="start" x="1563.5" y="-113.3" font-family="Times New Roman,serif" font-size="14.00">param_find_active()</text>
<text text-anchor="start" x="1563.5" y="-98.3" font-family="Times New Roman,serif" font-size="14.00">param_group_add()</text>
<text text-anchor="start" x="1563.5" y="-83.3" font-family="Times New Roman,serif" font-size="14.00">param_group_find()</text>
<text text-anchor="start" x="1563.5" y="-68.3" font-family="Times New Roman,serif" font-size="14.00">param_group_find_active()</text>
<text text-anchor="start" x="1563.5" y="-53.3" font-family="Times New Roman,serif" font-size="14.00">param_group_get()</text>
<text text-anchor="start" x="1563.5" y="-38.3" font-family="Times New Roman,serif" font-size="14.00">param_value()</text>
<text text-anchor="start" x="1563.5" y="-23.3" font-family="Times New Roman,serif" font-size="14.00">resolve_active()</text>
<text text-anchor="start" x="1563.5" y="-8.3" font-family="Times New Roman,serif" font-size="14.00">resolve_refs()</text>
</g>
<!-- 16&#45;&gt;13 -->
<g id="edge15" class="edge"><title>16&#45;&gt;13</title>
<path fill="none" stroke="black" d="M1644.5,-459.531C1644.5,-532.742 1644.5,-610.615 1644.5,-671.827"/>
<polygon fill="black" stroke="black" points="1644.5,-671.841 1648.5,-677.841 1644.5,-683.841 1640.5,-677.841 1644.5,-671.841"/>
<text text-anchor="middle" x="1678" y="-481.8" font-family="Times New Roman,serif" font-size="14.00" fill="green">param_defs</text>
</g>
<!-- 17 -->
<g id="node18" class="node"><title>17</title>
<polygon fill="none" stroke="black" points="1939,-158 1939,-302 2058,-302 2058,-158 1939,-158"/>
<text text-anchor="middle" x="1998.5" y="-286.8" font-family="Times New Roman,serif" font-size="14.00">script.ScriptTimer</text>
<polyline fill="none" stroke="black" points="1939,-279 2058,-279 "/>
<text text-anchor="start" x="1947" y="-263.8" font-family="Times New Roman,serif" font-size="14.00">arg</text>
<text text-anchor="start" x="1947" y="-248.8" font-family="Times New Roman,serif" font-size="14.00">callback</text>
<text text-anchor="start" x="1947" y="-233.8" font-family="Times New Roman,serif" font-size="14.00">count : int</text>
<text text-anchor="start" x="1947" y="-218.8" font-family="Times New Roman,serif" font-size="14.00">next_timeout</text>
<text text-anchor="start" x="1947" y="-203.8" font-family="Times New Roman,serif" font-size="14.00">period</text>
<text text-anchor="start" x="1947" y="-188.8" font-family="Times New Roman,serif" font-size="14.00">repeating : bool</text>
<polyline fill="none" stroke="black" points="1939,-181 2058,-181 "/>
<text text-anchor="middle" x="1998.5" y="-165.8" font-family="Times New Roman,serif" font-size="14.00"> </text>
</g>
<!-- 18 -->
<g id="node19" class="node"><title>18</title>
<polygon fill="none" stroke="black" points="774,-195 774,-265 869,-265 869,-195 774,-195"/>
<text text-anchor="middle" x="821.5" y="-249.8" font-family="Times New Roman,serif" font-size="14.00">script._Popen</text>
<polyline fill="none" stroke="black" points="774,-242 869,-242 "/>
<polyline fill="none" stroke="black" points="774,-218 869,-218 "/>
<text text-anchor="middle" x="821.5" y="-202.8" font-family="Times New Roman,serif" font-size="14.00"> </text>
</g>
<!-- 18&#45;&gt;3 -->
<g id="edge7" class="edge"><title>18&#45;&gt;3</title>
<path fill="none" stroke="black" d="M869.045,-258.264C942.297,-302.496 1082.91,-396.579 1165.5,-511 1209.34,-571.744 1237.16,-653.248 1252.87,-711.541"/>
<polygon fill="none" stroke="black" points="1249.55,-712.641 1255.48,-721.416 1256.31,-710.854 1249.55,-712.641"/>
</g>
<!-- 18&#45;&gt;4 -->
<g id="edge8" class="edge"><title>18&#45;&gt;4</title>
<path fill="none" stroke="black" d="M811.55,-265.237C786.419,-351.714 719.845,-580.794 684.054,-703.952"/>
<polygon fill="none" stroke="black" points="680.645,-703.14 681.215,-713.72 687.367,-705.094 680.645,-703.14"/>
</g>
<!-- 18&#45;&gt;7 -->
<g id="edge16" class="edge"><title>18&#45;&gt;7</title>
<path fill="none" stroke="black" d="M821.5,-265.237C821.5,-360.771 821.5,-630.344 821.5,-738.878"/>
<polygon fill="black" stroke="black" points="821.5,-738.991 825.5,-744.991 821.5,-750.991 817.5,-744.991 821.5,-738.991"/>
<text text-anchor="middle" x="843.5" y="-481.8" font-family="Times New Roman,serif" font-size="14.00" fill="green">_Popen</text>
</g>
<!-- 19 -->
<g id="node20" class="node"><title>19</title>
<polygon fill="none" stroke="black" points="596.5,-195.5 596.5,-264.5 724.5,-264.5 724.5,-195.5 596.5,-195.5"/>
<text text-anchor="middle" x="660.5" y="-249.3" font-family="Times New Roman,serif" font-size="14.00">thread._local</text>
<polyline fill="none" stroke="black" points="596.5,-241.5 724.5,-241.5 "/>
<text text-anchor="start" x="604.5" y="-226.3" font-family="Times New Roman,serif" font-size="14.00">process_handle : int</text>
<polyline fill="none" stroke="black" points="596.5,-218.5 724.5,-218.5 "/>
<text text-anchor="middle" x="660.5" y="-203.3" font-family="Times New Roman,serif" font-size="14.00"> </text>
</g>
<!-- 19&#45;&gt;4 -->
<g id="edge17" class="edge"><title>19&#45;&gt;4</title>
<path fill="none" stroke="black" d="M660.5,-264.821C660.5,-350.42 660.5,-577.63 660.5,-701.544"/>
<polygon fill="black" stroke="black" points="660.5,-701.57 664.5,-707.57 660.5,-713.57 656.5,-707.57 660.5,-701.57"/>
<text text-anchor="middle" x="671" y="-481.8" font-family="Times New Roman,serif" font-size="14.00" fill="green">_tls</text>
</g>
</g>
</svg>
