<?xml version="1.0" encoding="UTF-8" standalone="no"?>
<!DOCTYPE svg PUBLIC "-//W3C//DTD SVG 1.1//EN"
 "http://www.w3.org/Graphics/SVG/1.1/DTD/svg11.dtd">
<!-- Generated by graphviz version 2.38.0 (20140413.2041)
 -->
<!-- Title: classes_demo_SVP_app_name Pages: 1 -->
<svg width="2458pt" height="309pt"
 viewBox="0.00 0.00 2458.00 309.00" xmlns="http://www.w3.org/2000/svg" xmlns:xlink="http://www.w3.org/1999/xlink">
<g id="graph0" class="graph" transform="scale(1 1) rotate(0) translate(4 305)">
<title>classes_demo_SVP_app_name</title>
<polygon fill="white" stroke="none" points="-4,4 -4,-305 2454,-305 2454,4 -4,4"/>
<!-- 0 -->
<g id="node1" class="node"><title>0</title>
<polygon fill="none" stroke="black" points="1142,-88.5 1142,-124.5 1322,-124.5 1322,-88.5 1142,-88.5"/>
<text text-anchor="middle" x="1232" y="-102.8" font-family="Times New Roman,serif" font-size="14.00">_multiprocessing.Connection</text>
</g>
<!-- 5 -->
<g id="node6" class="node"><title>5</title>
<polygon fill="none" stroke="black" points="1455.5,-176.5 1455.5,-212.5 1564.5,-212.5 1564.5,-176.5 1455.5,-176.5"/>
<text text-anchor="middle" x="1510" y="-190.8" font-family="Times New Roman,serif" font-size="14.00">app.RunContext</text>
</g>
<!-- 0&#45;&gt;5 -->
<g id="edge5" class="edge"><title>0&#45;&gt;5</title>
<path fill="none" stroke="black" d="M1272.88,-124.516C1298.96,-134.996 1333.63,-148.245 1365,-158 1390.31,-165.87 1418.54,-173.118 1443.31,-178.984"/>
<polygon fill="black" stroke="black" points="1443.48,-179.024 1450.23,-176.491 1455.17,-181.75 1448.42,-184.282 1443.48,-179.024"/>
<text text-anchor="middle" x="1393.5" y="-146.8" font-family="Times New Roman,serif" font-size="14.00" fill="green">app_conn</text>
</g>
<!-- 0&#45;&gt;5 -->
<g id="edge6" class="edge"><title>0&#45;&gt;5</title>
<path fill="none" stroke="black" d="M1239.14,-124.848C1244.74,-136.167 1253.65,-150.236 1266,-158 1294.75,-176.079 1381.6,-185.385 1443.48,-189.847"/>
<polygon fill="black" stroke="black" points="1443.53,-189.851 1449.79,-186.273 1455.5,-190.677 1449.24,-194.254 1443.53,-189.851"/>
<text text-anchor="middle" x="1293.5" y="-146.8" font-family="Times New Roman,serif" font-size="14.00" fill="green">test_conn</text>
</g>
<!-- 1 -->
<g id="node2" class="node"><title>1</title>
<polygon fill="none" stroke="black" points="1340.5,-88.5 1340.5,-124.5 1545.5,-124.5 1545.5,-88.5 1340.5,-88.5"/>
<text text-anchor="middle" x="1443" y="-102.8" font-family="Times New Roman,serif" font-size="14.00">_multiprocessing.PipeConnection</text>
</g>
<!-- 1&#45;&gt;5 -->
<g id="edge7" class="edge"><title>1&#45;&gt;5</title>
<path fill="none" stroke="black" d="M1469.26,-124.707C1475.98,-129.993 1482.77,-136.223 1488,-143 1493.06,-149.56 1497.21,-157.463 1500.5,-165.049"/>
<polygon fill="black" stroke="black" points="1500.59,-165.287 1506.49,-169.427 1504.94,-176.469 1499.04,-172.329 1500.59,-165.287"/>
<text text-anchor="middle" x="1525.5" y="-146.8" font-family="Times New Roman,serif" font-size="14.00" fill="green">app_conn</text>
</g>
<!-- 1&#45;&gt;5 -->
<g id="edge8" class="edge"><title>1&#45;&gt;5</title>
<path fill="none" stroke="black" d="M1431.46,-124.963C1426.24,-135.232 1422.53,-148.099 1429,-158 1433.04,-164.175 1438.41,-169.283 1444.48,-173.506"/>
<polygon fill="black" stroke="black" points="1444.88,-173.742 1452.08,-173.326 1455.23,-179.811 1448.03,-180.227 1444.88,-173.742"/>
<text text-anchor="middle" x="1456.5" y="-146.8" font-family="Times New Roman,serif" font-size="14.00" fill="green">test_conn</text>
</g>
<!-- 2 -->
<g id="node3" class="node"><title>2</title>
<polygon fill="none" stroke="black" points="1770,-0.5 1770,-36.5 1864,-36.5 1864,-0.5 1770,-0.5"/>
<text text-anchor="middle" x="1817" y="-14.8" font-family="Times New Roman,serif" font-size="14.00">app.Directory</text>
</g>
<!-- 3 -->
<g id="node4" class="node"><title>3</title>
<polygon fill="none" stroke="black" points="1923,-0.5 1923,-36.5 2017,-36.5 2017,-0.5 1923,-0.5"/>
<text text-anchor="middle" x="1970" y="-14.8" font-family="Times New Roman,serif" font-size="14.00">app.LogEntry</text>
</g>
<!-- 4 -->
<g id="node5" class="node"><title>4</title>
<polygon fill="none" stroke="black" points="902.5,-88.5 902.5,-124.5 1017.5,-124.5 1017.5,-88.5 902.5,-88.5"/>
<text text-anchor="middle" x="960" y="-102.8" font-family="Times New Roman,serif" font-size="14.00">app.MultiProcess</text>
</g>
<!-- 4&#45;&gt;5 -->
<g id="edge9" class="edge"><title>4&#45;&gt;5</title>
<path fill="none" stroke="black" d="M967.049,-124.665C972.766,-136.21 982.016,-150.621 995,-158 1033.02,-179.609 1312.49,-188.904 1443.09,-192.101"/>
<polygon fill="black" stroke="black" points="1443.26,-192.105 1449.35,-188.249 1455.25,-192.391 1449.16,-196.247 1443.26,-192.105"/>
<text text-anchor="middle" x="1017.5" y="-146.8" font-family="Times New Roman,serif" font-size="14.00" fill="green">process</text>
</g>
<!-- 16 -->
<g id="node17" class="node"><title>16</title>
<polygon fill="none" stroke="black" points="398.5,-176.5 398.5,-212.5 599.5,-212.5 599.5,-176.5 398.5,-176.5"/>
<text text-anchor="middle" x="499" y="-190.8" font-family="Times New Roman,serif" font-size="14.00">multiprocessing.process.Process</text>
</g>
<!-- 4&#45;&gt;16 -->
<g id="edge1" class="edge"><title>4&#45;&gt;16</title>
<path fill="none" stroke="black" d="M944.437,-124.701C932.859,-136.263 916.005,-150.68 898,-158 847.549,-178.51 709.484,-187.212 609.894,-190.877"/>
<polygon fill="none" stroke="black" points="609.643,-187.383 599.774,-191.237 609.892,-194.379 609.643,-187.383"/>
</g>
<!-- 7 -->
<g id="node8" class="node"><title>7</title>
<polygon fill="none" stroke="black" points="1476,-264.5 1476,-300.5 1544,-300.5 1544,-264.5 1476,-264.5"/>
<text text-anchor="middle" x="1510" y="-278.8" font-family="Times New Roman,serif" font-size="14.00">app.SVP</text>
</g>
<!-- 5&#45;&gt;7 -->
<g id="edge10" class="edge"><title>5&#45;&gt;7</title>
<path fill="none" stroke="black" d="M1510,-212.903C1510,-224.167 1510,-239.116 1510,-252.183"/>
<polygon fill="black" stroke="black" points="1510,-252.416 1514,-258.416 1510,-264.416 1506,-258.416 1510,-252.416"/>
<text text-anchor="middle" x="1543.5" y="-234.8" font-family="Times New Roman,serif" font-size="14.00" fill="green">run_context</text>
</g>
<!-- 6 -->
<g id="node7" class="node"><title>6</title>
<polygon fill="none" stroke="black" points="2055,-0.5 2055,-36.5 2153,-36.5 2153,-0.5 2055,-0.5"/>
<text text-anchor="middle" x="2104" y="-14.8" font-family="Times New Roman,serif" font-size="14.00">app.RunScript</text>
</g>
<!-- 18 -->
<g id="node19" class="node"><title>18</title>
<polygon fill="none" stroke="black" points="2184,-88.5 2184,-124.5 2270,-124.5 2270,-88.5 2184,-88.5"/>
<text text-anchor="middle" x="2227" y="-102.8" font-family="Times New Roman,serif" font-size="14.00">script.Script</text>
</g>
<!-- 6&#45;&gt;18 -->
<g id="edge2" class="edge"><title>6&#45;&gt;18</title>
<path fill="none" stroke="black" d="M2128.6,-36.6967C2147.37,-49.8211 2173.42,-68.0348 2194,-82.4256"/>
<polygon fill="none" stroke="black" points="2192.25,-85.4713 2202.45,-88.3331 2196.26,-79.7345 2192.25,-85.4713"/>
</g>
<!-- 8 -->
<g id="node9" class="node"><title>8</title>
<polygon fill="none" stroke="black" points="2319.5,-0.5 2319.5,-36.5 2416.5,-36.5 2416.5,-0.5 2319.5,-0.5"/>
<text text-anchor="middle" x="2368" y="-14.8" font-family="Times New Roman,serif" font-size="14.00" fill="red">app.SVPError</text>
</g>
<!-- 11 -->
<g id="node12" class="node"><title>11</title>
<polygon fill="none" stroke="black" points="2299.5,-88.5 2299.5,-124.5 2436.5,-124.5 2436.5,-88.5 2299.5,-88.5"/>
<text text-anchor="middle" x="2368" y="-102.8" font-family="Times New Roman,serif" font-size="14.00" fill="red">exceptions.Exception</text>
</g>
<!-- 8&#45;&gt;11 -->
<g id="edge3" class="edge"><title>8&#45;&gt;11</title>
<path fill="none" stroke="black" d="M2368,-36.9034C2368,-48.7541 2368,-64.6831 2368,-78.2083"/>
<polygon fill="none" stroke="black" points="2364.5,-78.416 2368,-88.416 2371.5,-78.416 2364.5,-78.416"/>
</g>
<!-- 9 -->
<g id="node10" class="node"><title>9</title>
<polygon fill="none" stroke="black" points="815.5,-88.5 815.5,-124.5 884.5,-124.5 884.5,-88.5 815.5,-88.5"/>
<text text-anchor="middle" x="850" y="-102.8" font-family="Times New Roman,serif" font-size="14.00">app.Suite</text>
</g>
<!-- 9&#45;&gt;5 -->
<g id="edge11" class="edge"><title>9&#45;&gt;5</title>
<path fill="none" stroke="black" d="M876.101,-124.564C895.394,-136.221 922.762,-150.811 949,-158 1040.2,-182.99 1314.82,-190.489 1442.88,-192.657"/>
<polygon fill="black" stroke="black" points="1443.18,-192.662 1449.24,-188.76 1455.18,-192.856 1449.12,-196.759 1443.18,-192.662"/>
<text text-anchor="middle" x="962" y="-146.8" font-family="Times New Roman,serif" font-size="14.00" fill="green">suite</text>
</g>
<!-- 10 -->
<g id="node11" class="node"><title>10</title>
<polygon fill="none" stroke="black" points="2286,-176.5 2286,-212.5 2450,-212.5 2450,-176.5 2286,-176.5"/>
<text text-anchor="middle" x="2368" y="-190.8" font-family="Times New Roman,serif" font-size="14.00" fill="red">exceptions.BaseException</text>
</g>
<!-- 11&#45;&gt;10 -->
<g id="edge4" class="edge"><title>11&#45;&gt;10</title>
<path fill="none" stroke="black" d="M2368,-124.903C2368,-136.754 2368,-152.683 2368,-166.208"/>
<polygon fill="none" stroke="black" points="2364.5,-166.416 2368,-176.416 2371.5,-166.416 2364.5,-166.416"/>
</g>
<!-- 12 -->
<g id="node13" class="node"><title>12</title>
<polygon fill="none" stroke="black" points="493.5,-88.5 493.5,-124.5 590.5,-124.5 590.5,-88.5 493.5,-88.5"/>
<text text-anchor="middle" x="542" y="-102.8" font-family="Times New Roman,serif" font-size="14.00">itertools.count</text>
</g>
<!-- 12&#45;&gt;16 -->
<g id="edge12" class="edge"><title>12&#45;&gt;16</title>
<path fill="none" stroke="black" d="M533.298,-124.903C527.49,-136.519 519.723,-152.054 513.049,-165.402"/>
<polygon fill="black" stroke="black" points="512.909,-165.683 513.803,-172.838 507.542,-176.416 506.648,-169.261 512.909,-165.683"/>
<text text-anchor="middle" x="549" y="-146.8" font-family="Times New Roman,serif" font-size="14.00" fill="green">_counter</text>
</g>
<!-- 13 -->
<g id="node14" class="node"><title>13</title>
<polygon fill="none" stroke="black" points="609,-88.5 609,-124.5 797,-124.5 797,-88.5 609,-88.5"/>
<text text-anchor="middle" x="703" y="-102.8" font-family="Times New Roman,serif" font-size="14.00">multiprocessing.forking.Popen</text>
</g>
<!-- 13&#45;&gt;16 -->
<g id="edge13" class="edge"><title>13&#45;&gt;16</title>
<path fill="none" stroke="black" d="M662.208,-124.697C630.137,-138.217 585.256,-157.137 550.673,-171.716"/>
<polygon fill="black" stroke="black" points="550.431,-171.818 546.456,-177.835 539.373,-176.48 543.348,-170.463 550.431,-171.818"/>
<text text-anchor="middle" x="635.5" y="-146.8" font-family="Times New Roman,serif" font-size="14.00" fill="green">_popen</text>
</g>
<!-- 14 -->
<g id="node15" class="node"><title>14</title>
<polygon fill="none" stroke="black" points="0,-88.5 0,-124.5 188,-124.5 188,-88.5 0,-88.5"/>
<text text-anchor="middle" x="94" y="-102.8" font-family="Times New Roman,serif" font-size="14.00">multiprocessing.forking.Popen</text>
</g>
<!-- 14&#45;&gt;16 -->
<g id="edge14" class="edge"><title>14&#45;&gt;16</title>
<path fill="none" stroke="black" d="M168.208,-124.554C212.263,-134.56 269.253,-147.3 320,-158 345.557,-163.389 373.218,-168.989 398.977,-174.105"/>
<polygon fill="black" stroke="black" points="399.285,-174.165 405.947,-171.407 411.056,-176.496 404.394,-179.255 399.285,-174.165"/>
<text text-anchor="middle" x="341.5" y="-146.8" font-family="Times New Roman,serif" font-size="14.00" fill="green">_popen</text>
</g>
<!-- 15 -->
<g id="node16" class="node"><title>15</title>
<polygon fill="none" stroke="black" points="206.5,-88.5 206.5,-124.5 475.5,-124.5 475.5,-88.5 206.5,-88.5"/>
<text text-anchor="middle" x="341" y="-102.8" font-family="Times New Roman,serif" font-size="14.00">multiprocessing.process.AuthenticationString</text>
</g>
<!-- 15&#45;&gt;16 -->
<g id="edge15" class="edge"><title>15&#45;&gt;16</title>
<path fill="none" stroke="black" d="M351.178,-124.739C358.478,-135.716 369.253,-149.433 382,-158 390.079,-163.429 399.017,-168.053 408.248,-171.985"/>
<polygon fill="black" stroke="black" points="408.445,-172.062 415.491,-170.53 419.615,-176.445 412.569,-177.977 408.445,-172.062"/>
<text text-anchor="middle" x="407.5" y="-146.8" font-family="Times New Roman,serif" font-size="14.00" fill="green">_authkey</text>
</g>
<!-- 15&#45;&gt;16 -->
<g id="edge16" class="edge"><title>15&#45;&gt;16</title>
<path fill="none" stroke="black" d="M392.794,-124.523C406.236,-129.732 420.454,-135.971 433,-143 445.913,-150.235 459.076,-159.782 470.215,-168.625"/>
<polygon fill="black" stroke="black" points="470.517,-168.871 477.694,-169.569 479.81,-176.463 472.633,-175.765 470.517,-168.871"/>
<text text-anchor="middle" x="481.5" y="-146.8" font-family="Times New Roman,serif" font-size="14.00" fill="green">_authkey</text>
</g>
<!-- 17 -->
<g id="node18" class="node"><title>17</title>
<polygon fill="none" stroke="black" points="1645,-0.5 1645,-36.5 1731,-36.5 1731,-0.5 1645,-0.5"/>
<text text-anchor="middle" x="1688" y="-14.8" font-family="Times New Roman,serif" font-size="14.00">result.Result</text>
</g>
<!-- 17&#45;&gt;5 -->
<g id="edge17" class="edge"><title>17&#45;&gt;5</title>
<path fill="none" stroke="black" d="M1686.75,-36.6875C1684.3,-59.2347 1677.09,-98.981 1656,-125 1635.85,-149.85 1604.61,-166.163 1576.18,-176.61"/>
<polygon fill="black" stroke="black" points="1575.97,-176.682 1571.61,-182.422 1564.63,-180.601 1569,-174.861 1575.97,-176.682"/>
<text text-anchor="middle" x="1694.5" y="-102.8" font-family="Times New Roman,serif" font-size="14.00" fill="green">results</text>
</g>
<!-- 17&#45;&gt;5 -->
<g id="edge18" class="edge"><title>17&#45;&gt;5</title>
<path fill="none" stroke="black" d="M1700.58,-36.5186C1715.17,-58.529 1735.06,-97.3198 1717,-125 1687.16,-170.738 1625.2,-186.679 1576.81,-191.882"/>
<polygon fill="black" stroke="black" points="1576.78,-191.885 1571.17,-196.418 1564.83,-192.985 1570.44,-188.452 1576.78,-191.885"/>
<text text-anchor="middle" x="1760" y="-102.8" font-family="Times New Roman,serif" font-size="14.00" fill="green">active_result</text>
</g>
<!-- 17&#45;&gt;5 -->
<g id="edge19" class="edge"><title>17&#45;&gt;5</title>
<path fill="none" stroke="black" d="M1730.03,-36.5741C1771.11,-55.8394 1824.11,-89.1894 1799,-125 1773.75,-161.019 1653.78,-179.454 1576.57,-187.744"/>
<polygon fill="black" stroke="black" points="1576.5,-187.751 1570.94,-192.348 1564.56,-188.988 1570.12,-184.391 1576.5,-187.751"/>
<text text-anchor="middle" x="1841" y="-102.8" font-family="Times New Roman,serif" font-size="14.00" fill="green">active_result</text>
</g>
<!-- 17&#45;&gt;5 -->
<g id="edge20" class="edge"><title>17&#45;&gt;5</title>
<path fill="none" stroke="black" d="M1731.01,-30.9862C1740.81,-33.2746 1751.22,-35.4476 1761,-37 1892.35,-57.8443 2114.69,-10.5217 2047,-125 2031.51,-151.197 2016.18,-149.339 1987,-158 1912.09,-180.237 1689.54,-188.965 1576.9,-192.028"/>
<polygon fill="black" stroke="black" points="1576.7,-192.033 1570.81,-196.19 1564.71,-192.349 1570.6,-188.192 1576.7,-192.033"/>
<text text-anchor="middle" x="2095" y="-102.8" font-family="Times New Roman,serif" font-size="14.00" fill="green">active_result</text>
</g>
<!-- 17&#45;&gt;5 -->
<g id="edge21" class="edge"><title>17&#45;&gt;5</title>
<path fill="none" stroke="black" d="M1731.29,-32.0635C1785.15,-48.1232 1871.14,-75.358 1880,-88 1889.44,-101.465 1889.77,-111.769 1880,-125 1844.83,-172.648 1673.9,-187.163 1577.14,-191.577"/>
<polygon fill="black" stroke="black" points="1576.85,-191.59 1571.03,-195.842 1564.86,-192.102 1570.68,-187.849 1576.85,-191.59"/>
<text text-anchor="middle" x="1923" y="-102.8" font-family="Times New Roman,serif" font-size="14.00" fill="green">active_result</text>
</g>
<!-- 17&#45;&gt;5 -->
<g id="edge22" class="edge"><title>17&#45;&gt;5</title>
<path fill="none" stroke="black" d="M1644.78,-20.9675C1509.66,-25.9951 1101.84,-44.6669 1063,-88 1052.02,-100.245 1052.45,-112.387 1063,-125 1110.46,-181.734 1330.24,-192.061 1442.95,-193.56"/>
<polygon fill="black" stroke="black" points="1443.16,-193.562 1449.2,-189.628 1455.15,-193.693 1449.11,-197.627 1443.16,-193.562"/>
<text text-anchor="middle" x="1098" y="-102.8" font-family="Times New Roman,serif" font-size="14.00" fill="green">active_result</text>
</g>
<!-- 17&#45;&gt;5 -->
<g id="edge23" class="edge"><title>17&#45;&gt;5</title>
<path fill="none" stroke="black" d="M1649.25,-36.5071C1626.82,-48.1154 1599.61,-65.4759 1582,-88 1561.74,-113.907 1577.43,-131.467 1558,-158 1555.19,-161.841 1551.84,-165.447 1548.24,-168.778"/>
<polygon fill="black" stroke="black" points="1548.17,-168.829 1546.09,-175.734 1538.92,-176.47 1541,-169.566 1548.17,-168.829"/>
<text text-anchor="middle" x="1617" y="-102.8" font-family="Times New Roman,serif" font-size="14.00" fill="green">active_result</text>
</g>
<!-- 17&#45;&gt;9 -->
<g id="edge24" class="edge"><title>17&#45;&gt;9</title>
<path fill="none" stroke="black" d="M1644.87,-19.2982C1508.06,-19.0158 1085.07,-20.9884 953,-55 930.268,-60.8543 906.634,-72.023 887.747,-82.3714"/>
<polygon fill="black" stroke="black" points="887.665,-82.4179 884.41,-88.8527 877.218,-88.3232 880.473,-81.8884 887.665,-82.4179"/>
<text text-anchor="middle" x="968.5" y="-58.8" font-family="Times New Roman,serif" font-size="14.00" fill="green">result</text>
</g>
<!-- 17&#45;&gt;9 -->
<g id="edge25" class="edge"><title>17&#45;&gt;9</title>
<path fill="none" stroke="black" d="M1644.87,-19.0442C1514.88,-18.0954 1128.53,-18.5052 1009,-55 996.607,-58.7838 996.091,-65.3403 984,-70 948.836,-83.5519 934.924,-77.4889 896.16,-87.5039"/>
<polygon fill="black" stroke="black" points="896.079,-87.5268 891.39,-93.0055 884.53,-90.7847 889.218,-85.3059 896.079,-87.5268"/>
<text text-anchor="middle" x="1024.5" y="-58.8" font-family="Times New Roman,serif" font-size="14.00" fill="green">result</text>
</g>
<!-- 19 -->
<g id="node20" class="node"><title>19</title>
<polygon fill="none" stroke="black" points="2171,-0.5 2171,-36.5 2295,-36.5 2295,-0.5 2171,-0.5"/>
<text text-anchor="middle" x="2233" y="-14.8" font-family="Times New Roman,serif" font-size="14.00">script.ScriptConfig</text>
</g>
<!-- 19&#45;&gt;18 -->
<g id="edge26" class="edge"><title>19&#45;&gt;18</title>
<path fill="none" stroke="black" d="M2231.79,-36.9034C2231,-48.1675 2229.96,-63.116 2229.05,-76.1827"/>
<polygon fill="black" stroke="black" points="2229.03,-76.4451 2232.6,-82.709 2228.19,-88.416 2224.62,-82.1521 2229.03,-76.4451"/>
<text text-anchor="middle" x="2249" y="-58.8" font-family="Times New Roman,serif" font-size="14.00" fill="green">config</text>
</g>
<!-- 20 -->
<g id="node21" class="node"><title>20</title>
<polygon fill="none" stroke="black" points="718,-0.5 718,-36.5 896,-36.5 896,-0.5 718,-0.5"/>
<text text-anchor="middle" x="807" y="-14.8" font-family="Times New Roman,serif" font-size="14.00">script.ScriptParamGroupDef</text>
</g>
<!-- 20&#45;&gt;9 -->
<g id="edge27" class="edge"><title>20&#45;&gt;9</title>
<path fill="none" stroke="black" d="M777.252,-36.616C764.868,-46.0069 755.022,-58.1286 763,-70 763.349,-70.5201 783.418,-78.724 804.19,-87.1135"/>
<polygon fill="black" stroke="black" points="804.218,-87.1247 811.278,-85.6581 815.348,-91.6114 808.287,-93.0779 804.218,-87.1247"/>
<text text-anchor="middle" x="796.5" y="-58.8" font-family="Times New Roman,serif" font-size="14.00" fill="green">param_defs</text>
</g>
<!-- 20&#45;&gt;9 -->
<g id="edge28" class="edge"><title>20&#45;&gt;9</title>
<path fill="none" stroke="black" d="M819.174,-36.7848C822.896,-42.4481 826.837,-48.8643 830,-55 833.586,-61.9568 836.95,-69.711 839.857,-77.0142"/>
<polygon fill="black" stroke="black" points="839.882,-77.0802 845.754,-81.2664 844.148,-88.2964 838.276,-84.1102 839.882,-77.0802"/>
<text text-anchor="middle" x="870.5" y="-58.8" font-family="Times New Roman,serif" font-size="14.00" fill="green">param_defs</text>
</g>
<!-- 21 -->
<g id="node22" class="node"><title>21</title>
<polygon fill="none" stroke="black" points="49.5,-0.5 49.5,-36.5 138.5,-36.5 138.5,-0.5 49.5,-0.5"/>
<text text-anchor="middle" x="94" y="-14.8" font-family="Times New Roman,serif" font-size="14.00">thread._local</text>
</g>
<!-- 21&#45;&gt;14 -->
<g id="edge29" class="edge"><title>21&#45;&gt;14</title>
<path fill="none" stroke="black" d="M94,-36.9034C94,-48.1675 94,-63.116 94,-76.1827"/>
<polygon fill="black" stroke="black" points="94.0001,-76.416 98,-82.416 94,-88.416 90,-82.416 94.0001,-76.416"/>
<text text-anchor="middle" x="104.5" y="-58.8" font-family="Times New Roman,serif" font-size="14.00" fill="green">_tls</text>
</g>
</g>
</svg>
