<?xml version="1.0" encoding="UTF-8" standalone="no"?>
<!DOCTYPE svg PUBLIC "-//W3C//DTD SVG 1.1//EN"
 "http://www.w3.org/Graphics/SVG/1.1/DTD/svg11.dtd">
<!-- Generated by graphviz version 2.38.0 (20140413.2041)
 -->
<!-- Title: classes_demo_SVP_svptreectrl_name Pages: 1 -->
<svg width="1968pt" height="295pt"
 viewBox="0.00 0.00 1967.50 295.00" xmlns="http://www.w3.org/2000/svg" xmlns:xlink="http://www.w3.org/1999/xlink">
<g id="graph0" class="graph" transform="scale(1 1) rotate(0) translate(4 291)">
<title>classes_demo_SVP_svptreectrl_name</title>
<polygon fill="white" stroke="none" points="-4,4 -4,-291 1963.5,-291 1963.5,4 -4,4"/>
<!-- 0 -->
<g id="node1" class="node"><title>0</title>
<polygon fill="none" stroke="black" points="1682.5,-250.5 1682.5,-286.5 1876.5,-286.5 1876.5,-250.5 1682.5,-250.5"/>
<text text-anchor="middle" x="1779.5" y="-264.8" font-family="Times New Roman,serif" font-size="14.00">svptreectrl.CommandTreeEvent</text>
</g>
<!-- 1 -->
<g id="node2" class="node"><title>1</title>
<polygon fill="none" stroke="black" points="782.5,-176.5 782.5,-212.5 952.5,-212.5 952.5,-176.5 782.5,-176.5"/>
<text text-anchor="middle" x="867.5" y="-190.8" font-family="Times New Roman,serif" font-size="14.00">svptreectrl.CustomTreeCtrl</text>
</g>
<!-- 2 -->
<g id="node3" class="node"><title>2</title>
<polygon fill="none" stroke="black" points="195.5,-88.5 195.5,-124.5 335.5,-124.5 335.5,-88.5 195.5,-88.5"/>
<text text-anchor="middle" x="265.5" y="-102.8" font-family="Times New Roman,serif" font-size="14.00">svptreectrl.DragImage</text>
</g>
<!-- 2&#45;&gt;1 -->
<g id="edge3" class="edge"><title>2&#45;&gt;1</title>
<path fill="none" stroke="black" d="M292.905,-124.742C312.801,-136.323 340.804,-150.747 367.5,-158 440.849,-177.929 646.903,-187.19 770.405,-191.062"/>
<polygon fill="black" stroke="black" points="770.466,-191.064 776.586,-187.25 782.46,-191.431 776.341,-195.246 770.466,-191.064"/>
<text text-anchor="middle" x="401" y="-146.8" font-family="Times New Roman,serif" font-size="14.00" fill="green">_dragImage</text>
</g>
<!-- 3 -->
<g id="node4" class="node"><title>3</title>
<polygon fill="none" stroke="black" points="1347,-88.5 1347,-124.5 1520,-124.5 1520,-88.5 1347,-88.5"/>
<text text-anchor="middle" x="1433.5" y="-102.8" font-family="Times New Roman,serif" font-size="14.00">svptreectrl.GenericTreeItem</text>
</g>
<!-- 3&#45;&gt;1 -->
<g id="edge4" class="edge"><title>3&#45;&gt;1</title>
<path fill="none" stroke="black" d="M1346.79,-108.025C1139.37,-109.706 629.867,-116.524 604.5,-143 579.105,-169.506 685.098,-182.526 770.057,-188.613"/>
<polygon fill="black" stroke="black" points="770.184,-188.622 776.444,-185.043 782.156,-189.444 775.896,-193.024 770.184,-188.622"/>
<text text-anchor="middle" x="643.5" y="-146.8" font-family="Times New Roman,serif" font-size="14.00" fill="green">_underMouse</text>
</g>
<!-- 3&#45;&gt;1 -->
<g id="edge5" class="edge"><title>3&#45;&gt;1</title>
<path fill="none" stroke="black" d="M1346.66,-108.575C1158.3,-111.332 727.29,-120.121 705.5,-143 678.894,-170.936 721.897,-183.505 770.257,-189.12"/>
<polygon fill="black" stroke="black" points="770.357,-189.13 776.739,-185.772 782.293,-190.371 775.911,-193.729 770.357,-189.13"/>
<text text-anchor="middle" x="741" y="-146.8" font-family="Times New Roman,serif" font-size="14.00" fill="green">_dropTarget</text>
</g>
<!-- 3&#45;&gt;1 -->
<g id="edge6" class="edge"><title>3&#45;&gt;1</title>
<path fill="none" stroke="black" d="M1346.78,-109.238C1177.53,-113.058 817.998,-123.438 799.5,-143 790.093,-152.948 796.524,-162.341 808.517,-170.265"/>
<polygon fill="black" stroke="black" points="808.694,-170.366 815.887,-169.848 819.131,-176.288 811.938,-176.806 808.694,-170.366"/>
<text text-anchor="middle" x="822.5" y="-146.8" font-family="Times New Roman,serif" font-size="14.00" fill="green">_anchor</text>
</g>
<!-- 3&#45;&gt;1 -->
<g id="edge7" class="edge"><title>3&#45;&gt;1</title>
<path fill="none" stroke="black" d="M1346.94,-106.641C1196.77,-106.058 900.816,-109.265 868.5,-143 863.086,-148.652 861.325,-156.501 861.329,-164.328"/>
<polygon fill="black" stroke="black" points="861.331,-164.35 865.904,-169.926 862.515,-176.291 857.943,-170.715 861.331,-164.35"/>
<text text-anchor="middle" x="907" y="-146.8" font-family="Times New Roman,serif" font-size="14.00" fill="green">_oldSelection</text>
</g>
<!-- 3&#45;&gt;1 -->
<g id="edge8" class="edge"><title>3&#45;&gt;1</title>
<path fill="none" stroke="black" d="M1346.88,-108.991C1232.11,-111.846 1036.26,-120.014 968.5,-143 956.943,-146.921 956.195,-152.122 945.5,-158 937.157,-162.585 928.112,-167.096 919.237,-171.283"/>
<polygon fill="black" stroke="black" points="919.049,-171.369 915.275,-177.514 908.152,-176.395 911.925,-170.25 919.049,-171.369"/>
<text text-anchor="middle" x="1005.5" y="-146.8" font-family="Times New Roman,serif" font-size="14.00" fill="green">_key_current</text>
</g>
<!-- 3&#45;&gt;1 -->
<g id="edge9" class="edge"><title>3&#45;&gt;1</title>
<path fill="none" stroke="black" d="M1346.84,-111.088C1254.74,-115.745 1115.63,-125.436 1065.5,-143 1053.98,-147.036 1053.79,-153.371 1042.5,-158 1018,-168.044 990.364,-175.337 964.416,-180.597"/>
<polygon fill="black" stroke="black" points="964.412,-180.598 959.279,-185.663 952.63,-182.874 957.762,-177.809 964.412,-180.598"/>
<text text-anchor="middle" x="1102.5" y="-146.8" font-family="Times New Roman,serif" font-size="14.00" fill="green">_key_current</text>
</g>
<!-- 3&#45;&gt;1 -->
<g id="edge10" class="edge"><title>3&#45;&gt;1</title>
<path fill="none" stroke="black" d="M1346.93,-109.056C1292.53,-112.391 1221.69,-121.118 1162.5,-143 1151.05,-147.231 1150.95,-153.771 1139.5,-158 1083.76,-178.591 1017.73,-187.543 964.694,-191.31"/>
<polygon fill="black" stroke="black" points="964.522,-191.321 958.793,-195.702 952.547,-192.099 958.275,-187.719 964.522,-191.321"/>
<text text-anchor="middle" x="1199.5" y="-146.8" font-family="Times New Roman,serif" font-size="14.00" fill="green">_key_current</text>
</g>
<!-- 3&#45;&gt;1 -->
<g id="edge11" class="edge"><title>3&#45;&gt;1</title>
<path fill="none" stroke="black" d="M1346.64,-118.594C1318.19,-123.956 1286.88,-131.759 1259.5,-143 1248.21,-147.635 1248.02,-153.966 1236.5,-158 1188.11,-174.95 1056.99,-184.553 964.887,-189.389"/>
<polygon fill="black" stroke="black" points="964.712,-189.397 958.924,-193.699 952.727,-190.011 958.515,-185.71 964.712,-189.397"/>
<text text-anchor="middle" x="1283" y="-146.8" font-family="Times New Roman,serif" font-size="14.00" fill="green">_current</text>
</g>
<!-- 3&#45;&gt;1 -->
<g id="edge12" class="edge"><title>3&#45;&gt;1</title>
<path fill="none" stroke="black" d="M1375.25,-124.535C1360.06,-129.745 1343.91,-135.98 1329.5,-143 1318.53,-148.346 1318.05,-154.053 1306.5,-158 1245.48,-178.854 1074.28,-187.639 964.59,-191.206"/>
<polygon fill="black" stroke="black" points="964.516,-191.208 958.645,-195.394 952.522,-191.585 958.393,-187.398 964.516,-191.208"/>
<text text-anchor="middle" x="1353" y="-146.8" font-family="Times New Roman,serif" font-size="14.00" fill="green">_current</text>
</g>
<!-- 3&#45;&gt;1 -->
<g id="edge13" class="edge"><title>3&#45;&gt;1</title>
<path fill="none" stroke="black" d="M1416.71,-124.594C1403.4,-137.707 1385.58,-154.189 1376.5,-158 1304.71,-188.125 1091.55,-193.617 964.988,-194.102"/>
<polygon fill="black" stroke="black" points="964.641,-194.102 958.652,-198.118 952.641,-194.134 958.631,-190.118 964.641,-194.102"/>
<text text-anchor="middle" x="1420" y="-146.8" font-family="Times New Roman,serif" font-size="14.00" fill="green">_current</text>
</g>
<!-- 3&#45;&gt;1 -->
<g id="edge14" class="edge"><title>3&#45;&gt;1</title>
<path fill="none" stroke="black" d="M1445.21,-124.955C1450.86,-135.741 1454.81,-149.163 1446.5,-158 1430.29,-175.237 1125.7,-186.301 964.979,-190.964"/>
<polygon fill="black" stroke="black" points="964.713,-190.971 958.83,-195.142 952.718,-191.315 958.601,-187.145 964.713,-190.971"/>
<text text-anchor="middle" x="1476" y="-146.8" font-family="Times New Roman,serif" font-size="14.00" fill="green">_oldItem</text>
</g>
<!-- 6 -->
<g id="node7" class="node"><title>6</title>
<polygon fill="none" stroke="black" points="1711.5,-176.5 1711.5,-212.5 1847.5,-212.5 1847.5,-176.5 1711.5,-176.5"/>
<text text-anchor="middle" x="1779.5" y="-190.8" font-family="Times New Roman,serif" font-size="14.00">svptreectrl.TreeEvent</text>
</g>
<!-- 3&#45;&gt;6 -->
<g id="edge15" class="edge"><title>3&#45;&gt;6</title>
<path fill="none" stroke="black" d="M1520.02,-115.735C1554.62,-120.941 1594.29,-129.377 1628.5,-143 1639.84,-147.515 1640.38,-152.977 1651.5,-158 1666.64,-164.836 1683.39,-170.636 1699.64,-175.441"/>
<polygon fill="black" stroke="black" points="1699.82,-175.491 1706.69,-173.279 1711.37,-178.764 1704.5,-180.976 1699.82,-175.491"/>
<text text-anchor="middle" x="1677.5" y="-146.8" font-family="Times New Roman,serif" font-size="14.00" fill="green">_itemOld</text>
</g>
<!-- 3&#45;&gt;6 -->
<g id="edge16" class="edge"><title>3&#45;&gt;6</title>
<path fill="none" stroke="black" d="M1520.12,-108.945C1574.31,-112.244 1644.73,-120.972 1703.5,-143 1704.11,-143.228 1724.11,-156.524 1743.44,-169.414"/>
<polygon fill="black" stroke="black" points="1743.7,-169.586 1750.91,-169.589 1753.68,-176.247 1746.47,-176.244 1743.7,-169.586"/>
<text text-anchor="middle" x="1739" y="-146.8" font-family="Times New Roman,serif" font-size="14.00" fill="green">_item</text>
</g>
<!-- 3&#45;&gt;6 -->
<g id="edge17" class="edge"><title>3&#45;&gt;6</title>
<path fill="none" stroke="black" d="M1520.25,-107.404C1603.23,-108.984 1720.99,-116.122 1757.5,-143 1764.64,-148.256 1769.5,-156.33 1772.78,-164.49"/>
<polygon fill="black" stroke="black" points="1772.87,-164.77 1778.52,-169.251 1776.56,-176.19 1770.91,-171.709 1772.87,-164.77"/>
<text text-anchor="middle" x="1785" y="-146.8" font-family="Times New Roman,serif" font-size="14.00" fill="green">_item</text>
</g>
<!-- 3&#45;&gt;6 -->
<g id="edge18" class="edge"><title>3&#45;&gt;6</title>
<path fill="none" stroke="black" d="M1520.17,-109.776C1623.81,-113.411 1785.73,-122.351 1804.5,-143 1810.61,-149.719 1809,-158.204 1804.47,-166.291"/>
<polygon fill="black" stroke="black" points="1804.43,-166.344 1804.25,-173.553 1797.53,-176.159 1797.71,-168.951 1804.43,-166.344"/>
<text text-anchor="middle" x="1823" y="-146.8" font-family="Times New Roman,serif" font-size="14.00" fill="green">_item</text>
</g>
<!-- 3&#45;&gt;6 -->
<g id="edge19" class="edge"><title>3&#45;&gt;6</title>
<path fill="none" stroke="black" d="M1520.22,-108.914C1633.83,-111.683 1821.18,-119.755 1842.5,-143 1851.38,-152.686 1845.31,-162.05 1834.04,-170.03"/>
<polygon fill="black" stroke="black" points="1833.83,-170.157 1830.78,-176.69 1823.57,-176.383 1826.63,-169.851 1833.83,-170.157"/>
<text text-anchor="middle" x="1862" y="-146.8" font-family="Times New Roman,serif" font-size="14.00" fill="green">_item</text>
</g>
<!-- 3&#45;&gt;6 -->
<g id="edge20" class="edge"><title>3&#45;&gt;6</title>
<path fill="none" stroke="black" d="M1520.16,-108.178C1643.51,-110.06 1857.54,-117.068 1881.5,-143 1895.49,-158.148 1881.13,-169.338 1859.19,-177.28"/>
<polygon fill="black" stroke="black" points="1858.95,-177.357 1854.47,-183.001 1847.53,-181.03 1852.02,-175.385 1858.95,-177.357"/>
<text text-anchor="middle" x="1902" y="-146.8" font-family="Times New Roman,serif" font-size="14.00" fill="green">_item</text>
</g>
<!-- 3&#45;&gt;6 -->
<g id="edge21" class="edge"><title>3&#45;&gt;6</title>
<path fill="none" stroke="black" d="M1520.19,-107.546C1653.12,-108.533 1894.82,-114.307 1921.5,-143 1945.79,-169.12 1903.95,-181.742 1859.51,-187.835"/>
<polygon fill="black" stroke="black" points="1859.49,-187.837 1854.03,-192.546 1847.59,-189.316 1853.05,-184.607 1859.49,-187.837"/>
<text text-anchor="middle" x="1944" y="-146.8" font-family="Times New Roman,serif" font-size="14.00" fill="green">_item</text>
</g>
<!-- 3&#45;&gt;6 -->
<g id="edge22" class="edge"><title>3&#45;&gt;6</title>
<path fill="none" stroke="black" d="M1479.85,-124.508C1493.21,-129.917 1507.64,-136.261 1520.5,-143 1531.31,-148.664 1532.09,-153.66 1543.5,-158 1593.27,-176.937 1652.54,-185.808 1699.24,-189.946"/>
<polygon fill="black" stroke="black" points="1699.48,-189.966 1705.79,-186.469 1711.44,-190.946 1705.13,-194.443 1699.48,-189.966"/>
<text text-anchor="middle" x="1559" y="-146.8" font-family="Times New Roman,serif" font-size="14.00" fill="green">_item</text>
</g>
<!-- 3&#45;&gt;6 -->
<g id="edge23" class="edge"><title>3&#45;&gt;6</title>
<path fill="none" stroke="black" d="M1520.18,-123.205C1538.63,-128.216 1557.63,-134.694 1574.5,-143 1584.15,-147.752 1583.71,-153.53 1593.5,-158 1626.39,-173.023 1665.36,-181.689 1699.1,-186.689"/>
<polygon fill="black" stroke="black" points="1699.39,-186.729 1705.88,-183.587 1711.28,-188.37 1704.79,-191.512 1699.39,-186.729"/>
<text text-anchor="middle" x="1609" y="-146.8" font-family="Times New Roman,serif" font-size="14.00" fill="green">_item</text>
</g>
<!-- 4 -->
<g id="node5" class="node"><title>4</title>
<polygon fill="none" stroke="black" points="1527,-0.5 1527,-36.5 1660,-36.5 1660,-0.5 1527,-0.5"/>
<text text-anchor="middle" x="1593.5" y="-14.8" font-family="Times New Roman,serif" font-size="14.00">svptreectrl.MyFrame</text>
</g>
<!-- 5 -->
<g id="node6" class="node"><title>5</title>
<polygon fill="none" stroke="black" points="353.5,-88.5 353.5,-124.5 513.5,-124.5 513.5,-88.5 353.5,-88.5"/>
<text text-anchor="middle" x="433.5" y="-102.8" font-family="Times New Roman,serif" font-size="14.00">svptreectrl.TreeEditTimer</text>
</g>
<!-- 5&#45;&gt;1 -->
<g id="edge24" class="edge"><title>5&#45;&gt;1</title>
<path fill="none" stroke="black" d="M433.884,-124.718C435.118,-135.979 438.712,-150.031 448.5,-158 472.901,-177.865 654.458,-187.074 770.438,-190.971"/>
<polygon fill="black" stroke="black" points="770.501,-190.973 776.629,-187.171 782.495,-191.364 776.367,-195.166 770.501,-190.973"/>
<text text-anchor="middle" x="479" y="-146.8" font-family="Times New Roman,serif" font-size="14.00" fill="green">_editTimer</text>
</g>
<!-- 6&#45;&gt;0 -->
<g id="edge1" class="edge"><title>6&#45;&gt;0</title>
<path fill="none" stroke="black" d="M1779.5,-212.563C1779.5,-220.693 1779.5,-230.624 1779.5,-239.795"/>
<polygon fill="none" stroke="black" points="1776,-240.059 1779.5,-250.059 1783,-240.059 1776,-240.059"/>
</g>
<!-- 7 -->
<g id="node8" class="node"><title>7</title>
<polygon fill="none" stroke="black" points="532,-88.5 532,-124.5 695,-124.5 695,-88.5 532,-88.5"/>
<text text-anchor="middle" x="613.5" y="-102.8" font-family="Times New Roman,serif" font-size="14.00">svptreectrl.TreeFindTimer</text>
</g>
<!-- 7&#45;&gt;1 -->
<g id="edge25" class="edge"><title>7&#45;&gt;1</title>
<path fill="none" stroke="black" d="M539.024,-124.524C518.715,-132.549 505.478,-143.586 518.5,-158 535.165,-176.446 672.525,-185.803 769.854,-190.161"/>
<polygon fill="black" stroke="black" points="770.121,-190.173 776.289,-186.437 782.109,-190.693 775.941,-194.429 770.121,-190.173"/>
<text text-anchor="middle" x="550" y="-146.8" font-family="Times New Roman,serif" font-size="14.00" fill="green">_findTimer</text>
</g>
<!-- 8 -->
<g id="node9" class="node"><title>8</title>
<polygon fill="none" stroke="black" points="1358,-0.5 1358,-36.5 1509,-36.5 1509,-0.5 1358,-0.5"/>
<text text-anchor="middle" x="1433.5" y="-14.8" font-family="Times New Roman,serif" font-size="14.00">svptreectrl.TreeItemAttr</text>
</g>
<!-- 8&#45;&gt;3 -->
<g id="edge26" class="edge"><title>8&#45;&gt;3</title>
<path fill="none" stroke="black" d="M1433.5,-36.9034C1433.5,-48.1675 1433.5,-63.116 1433.5,-76.1827"/>
<polygon fill="black" stroke="black" points="1433.5,-76.416 1437.5,-82.416 1433.5,-88.416 1429.5,-82.416 1433.5,-76.416"/>
<text text-anchor="middle" x="1446.5" y="-58.8" font-family="Times New Roman,serif" font-size="14.00" fill="green">_attr</text>
</g>
<!-- 9 -->
<g id="node10" class="node"><title>9</title>
<polygon fill="none" stroke="black" points="26,-88.5 26,-124.5 177,-124.5 177,-88.5 26,-88.5"/>
<text text-anchor="middle" x="101.5" y="-102.8" font-family="Times New Roman,serif" font-size="14.00">svptreectrl.TreeTextCtrl</text>
</g>
<!-- 9&#45;&gt;1 -->
<g id="edge27" class="edge"><title>9&#45;&gt;1</title>
<path fill="none" stroke="black" d="M150.142,-124.578C185.111,-136.083 233.636,-150.481 277.5,-158 449.179,-187.428 652.583,-193.438 770.163,-194.148"/>
<polygon fill="black" stroke="black" points="770.319,-194.148 776.337,-190.176 782.318,-194.204 776.3,-198.176 770.319,-194.148"/>
<text text-anchor="middle" x="302" y="-146.8" font-family="Times New Roman,serif" font-size="14.00" fill="green">_editCtrl</text>
</g>
<!-- 10 -->
<g id="node11" class="node"><title>10</title>
<polygon fill="none" stroke="black" points="0,-176.5 0,-212.5 203,-212.5 203,-176.5 0,-176.5"/>
<text text-anchor="middle" x="101.5" y="-190.8" font-family="Times New Roman,serif" font-size="14.00">wx.lib.expando.ExpandoTextCtrl</text>
</g>
<!-- 9&#45;&gt;10 -->
<g id="edge2" class="edge"><title>9&#45;&gt;10</title>
<path fill="none" stroke="black" d="M101.5,-124.903C101.5,-136.754 101.5,-152.683 101.5,-166.208"/>
<polygon fill="none" stroke="black" points="98.0001,-166.416 101.5,-176.416 105,-166.416 98.0001,-166.416"/>
</g>
</g>
</svg>
