<?xml version="1.0" encoding="UTF-8" standalone="no"?>
<!DOCTYPE svg PUBLIC "-//W3C//DTD SVG 1.1//EN"
 "http://www.w3.org/Graphics/SVG/1.1/DTD/svg11.dtd">
<!-- Generated by graphviz version 2.38.0 (20140413.2041)
 -->
<!-- Title: classes_demo_SVP_simplify_ui_name Pages: 1 -->
<svg width="2714pt" height="309pt"
 viewBox="0.00 0.00 2714.00 309.00" xmlns="http://www.w3.org/2000/svg" xmlns:xlink="http://www.w3.org/1999/xlink">
<g id="graph0" class="graph" transform="scale(1 1) rotate(0) translate(4 305)">
<title>classes_demo_SVP_simplify_ui_name</title>
<polygon fill="white" stroke="none" points="-4,4 -4,-305 2710,-305 2710,4 -4,4"/>
<!-- 0 -->
<g id="node1" class="node"><title>0</title>
<polygon fill="none" stroke="black" points="0,-88.5 0,-124.5 109,-124.5 109,-88.5 0,-88.5"/>
<text text-anchor="middle" x="54.5" y="-102.8" font-family="Times New Roman,serif" font-size="14.00">app.RunContext</text>
</g>
<!-- 1 -->
<g id="node2" class="node"><title>1</title>
<polygon fill="none" stroke="black" points="640.5,-176.5 640.5,-212.5 804.5,-212.5 804.5,-176.5 640.5,-176.5"/>
<text text-anchor="middle" x="722.5" y="-190.8" font-family="Times New Roman,serif" font-size="14.00" fill="red">exceptions.BaseException</text>
</g>
<!-- 2 -->
<g id="node3" class="node"><title>2</title>
<polygon fill="none" stroke="black" points="654,-88.5 654,-124.5 791,-124.5 791,-88.5 654,-88.5"/>
<text text-anchor="middle" x="722.5" y="-102.8" font-family="Times New Roman,serif" font-size="14.00" fill="red">exceptions.Exception</text>
</g>
<!-- 2&#45;&gt;1 -->
<g id="edge1" class="edge"><title>2&#45;&gt;1</title>
<path fill="none" stroke="black" d="M722.5,-124.903C722.5,-136.754 722.5,-152.683 722.5,-166.208"/>
<polygon fill="none" stroke="black" points="719,-166.416 722.5,-176.416 726,-166.416 719,-166.416"/>
</g>
<!-- 3 -->
<g id="node4" class="node"><title>3</title>
<polygon fill="none" stroke="black" points="225.5,-176.5 225.5,-212.5 395.5,-212.5 395.5,-176.5 225.5,-176.5"/>
<text text-anchor="middle" x="310.5" y="-190.8" font-family="Times New Roman,serif" font-size="14.00">svptreectrl.CustomTreeCtrl</text>
</g>
<!-- 6 -->
<g id="node7" class="node"><title>6</title>
<polygon fill="none" stroke="black" points="214.5,-264.5 214.5,-300.5 330.5,-300.5 330.5,-264.5 214.5,-264.5"/>
<text text-anchor="middle" x="272.5" y="-278.8" font-family="Times New Roman,serif" font-size="14.00">ui.EditSuiteDialog</text>
</g>
<!-- 3&#45;&gt;6 -->
<g id="edge23" class="edge"><title>3&#45;&gt;6</title>
<path fill="none" stroke="black" d="M225.404,-205.787C211.767,-211.23 199.276,-219.251 190.5,-231 181.321,-243.287 189.25,-253.253 203.204,-260.984"/>
<polygon fill="black" stroke="black" points="203.424,-261.087 210.558,-260.037 214.271,-266.219 207.137,-267.269 203.424,-261.087"/>
<text text-anchor="middle" x="246.5" y="-234.8" font-family="Times New Roman,serif" font-size="14.00" fill="green">members_avail_tree</text>
</g>
<!-- 3&#45;&gt;6 -->
<g id="edge24" class="edge"><title>3&#45;&gt;6</title>
<path fill="none" stroke="black" d="M310.085,-212.533C309.292,-222.649 307.304,-235.508 302.5,-246 301.13,-248.992 299.435,-251.932 297.554,-254.76"/>
<polygon fill="black" stroke="black" points="297.463,-254.878 296.993,-262.074 290.17,-264.407 290.64,-257.211 297.463,-254.878"/>
<text text-anchor="middle" x="347" y="-234.8" font-family="Times New Roman,serif" font-size="14.00" fill="green">members_tree</text>
</g>
<!-- 10 -->
<g id="node11" class="node"><title>10</title>
<polygon fill="none" stroke="black" points="368.5,-264.5 368.5,-300.5 484.5,-300.5 484.5,-264.5 368.5,-264.5"/>
<text text-anchor="middle" x="426.5" y="-278.8" font-family="Times New Roman,serif" font-size="14.00">ui.NewTestDialog</text>
</g>
<!-- 3&#45;&gt;10 -->
<g id="edge25" class="edge"><title>3&#45;&gt;10</title>
<path fill="none" stroke="black" d="M360.265,-212.641C370.868,-217.602 381.554,-223.698 390.5,-231 398.272,-237.343 405.155,-245.759 410.767,-253.898"/>
<polygon fill="black" stroke="black" points="410.916,-254.13 417.518,-257.03 417.38,-264.24 410.778,-261.34 410.916,-254.13"/>
<text text-anchor="middle" x="416" y="-234.8" font-family="Times New Roman,serif" font-size="14.00" fill="green">tree</text>
</g>
<!-- 4 -->
<g id="node5" class="node"><title>4</title>
<polygon fill="none" stroke="black" points="1676,-88.5 1676,-124.5 1759,-124.5 1759,-88.5 1676,-88.5"/>
<text text-anchor="middle" x="1717.5" y="-102.8" font-family="Times New Roman,serif" font-size="14.00">ui.Directory</text>
</g>
<!-- 9 -->
<g id="node10" class="node"><title>9</title>
<polygon fill="none" stroke="black" points="1246.5,-176.5 1246.5,-212.5 1364.5,-212.5 1364.5,-176.5 1246.5,-176.5"/>
<text text-anchor="middle" x="1305.5" y="-190.8" font-family="Times New Roman,serif" font-size="14.00">ui.EntityTreeEntry</text>
</g>
<!-- 4&#45;&gt;9 -->
<g id="edge2" class="edge"><title>4&#45;&gt;9</title>
<path fill="none" stroke="black" d="M1675.9,-122.317C1672.74,-123.277 1669.58,-124.185 1666.5,-125 1566.23,-151.569 1447.7,-172.022 1374.55,-183.409"/>
<polygon fill="none" stroke="black" points="1373.89,-179.97 1364.54,-184.956 1374.96,-186.888 1373.89,-179.97"/>
</g>
<!-- 5 -->
<g id="node6" class="node"><title>5</title>
<polygon fill="none" stroke="black" points="2264.5,-0.5 2264.5,-36.5 2352.5,-36.5 2352.5,-0.5 2264.5,-0.5"/>
<text text-anchor="middle" x="2308.5" y="-14.8" font-family="Times New Roman,serif" font-size="14.00">ui.EditParam</text>
</g>
<!-- 7 -->
<g id="node8" class="node"><title>7</title>
<polygon fill="none" stroke="black" points="2371,-0.5 2371,-36.5 2484,-36.5 2484,-0.5 2371,-0.5"/>
<text text-anchor="middle" x="2427.5" y="-14.8" font-family="Times New Roman,serif" font-size="14.00">ui.EditTestDialog</text>
</g>
<!-- 8 -->
<g id="node9" class="node"><title>8</title>
<polygon fill="none" stroke="black" points="127.5,-88.5 127.5,-124.5 215.5,-124.5 215.5,-88.5 127.5,-88.5"/>
<text text-anchor="middle" x="171.5" y="-102.8" font-family="Times New Roman,serif" font-size="14.00">ui.EntityTree</text>
</g>
<!-- 8&#45;&gt;3 -->
<g id="edge3" class="edge"><title>8&#45;&gt;3</title>
<path fill="none" stroke="black" d="M199.295,-124.697C220.792,-137.997 250.736,-156.524 274.137,-171.002"/>
<polygon fill="none" stroke="black" points="272.408,-174.048 282.754,-176.333 276.091,-168.095 272.408,-174.048"/>
</g>
<!-- 36 -->
<g id="node37" class="node"><title>36</title>
<polygon fill="none" stroke="black" points="104.5,-176.5 104.5,-212.5 196.5,-212.5 196.5,-176.5 104.5,-176.5"/>
<text text-anchor="middle" x="150.5" y="-190.8" font-family="Times New Roman,serif" font-size="14.00">ui.ToolFrame</text>
</g>
<!-- 8&#45;&gt;36 -->
<g id="edge26" class="edge"><title>8&#45;&gt;36</title>
<path fill="none" stroke="black" d="M167.25,-124.903C164.471,-136.285 160.773,-151.428 157.559,-164.59"/>
<polygon fill="black" stroke="black" points="157.518,-164.759 159.981,-171.536 154.672,-176.416 152.209,-169.638 157.518,-164.759"/>
<text text-anchor="middle" x="191.5" y="-146.8" font-family="Times New Roman,serif" font-size="14.00" fill="green">entity_tree</text>
</g>
<!-- 11 -->
<g id="node12" class="node"><title>11</title>
<polygon fill="none" stroke="black" points="516,-264.5 516,-300.5 617,-300.5 617,-264.5 516,-264.5"/>
<text text-anchor="middle" x="566.5" y="-278.8" font-family="Times New Roman,serif" font-size="14.00">ui.ResultDialog</text>
</g>
<!-- 12 -->
<g id="node13" class="node"><title>12</title>
<polygon fill="none" stroke="black" points="809.5,-88.5 809.5,-124.5 957.5,-124.5 957.5,-88.5 809.5,-88.5"/>
<text text-anchor="middle" x="883.5" y="-102.8" font-family="Times New Roman,serif" font-size="14.00">ui.ResultDirectoryEntry</text>
</g>
<!-- 12&#45;&gt;9 -->
<g id="edge4" class="edge"><title>12&#45;&gt;9</title>
<path fill="none" stroke="black" d="M957.705,-123.178C960.675,-123.795 963.616,-124.404 966.5,-125 1059.96,-144.295 1168.04,-166.034 1236.56,-179.746"/>
<polygon fill="none" stroke="black" points="1235.88,-183.18 1246.37,-181.709 1237.25,-176.316 1235.88,-183.18"/>
</g>
<!-- 13 -->
<g id="node14" class="node"><title>13</title>
<polygon fill="none" stroke="black" points="976,-88.5 976,-124.5 1071,-124.5 1071,-88.5 976,-88.5"/>
<text text-anchor="middle" x="1023.5" y="-102.8" font-family="Times New Roman,serif" font-size="14.00">ui.ResultEntry</text>
</g>
<!-- 13&#45;&gt;9 -->
<g id="edge5" class="edge"><title>13&#45;&gt;9</title>
<path fill="none" stroke="black" d="M1071.08,-122.118C1074.27,-123.094 1077.43,-124.062 1080.5,-125 1133.98,-141.35 1194.63,-159.81 1239.48,-173.444"/>
<polygon fill="none" stroke="black" points="1238.5,-176.805 1249.08,-176.364 1240.53,-170.107 1238.5,-176.805"/>
</g>
<!-- 14 -->
<g id="node15" class="node"><title>14</title>
<polygon fill="none" stroke="black" points="2502,-0.5 2502,-36.5 2605,-36.5 2605,-0.5 2502,-0.5"/>
<text text-anchor="middle" x="2553.5" y="-14.8" font-family="Times New Roman,serif" font-size="14.00">ui.ResultEntry_</text>
</g>
<!-- 15 -->
<g id="node16" class="node"><title>15</title>
<polygon fill="none" stroke="black" points="418,-176.5 418,-212.5 513,-212.5 513,-176.5 418,-176.5"/>
<text text-anchor="middle" x="465.5" y="-190.8" font-family="Times New Roman,serif" font-size="14.00">ui.ResultPanel</text>
</g>
<!-- 16 -->
<g id="node17" class="node"><title>16</title>
<polygon fill="none" stroke="black" points="234,-88.5 234,-124.5 325,-124.5 325,-88.5 234,-88.5"/>
<text text-anchor="middle" x="279.5" y="-102.8" font-family="Times New Roman,serif" font-size="14.00">ui.ResultTree</text>
</g>
<!-- 16&#45;&gt;3 -->
<g id="edge6" class="edge"><title>16&#45;&gt;3</title>
<path fill="none" stroke="black" d="M285.773,-124.903C290.087,-136.871 295.901,-152.999 300.807,-166.609"/>
<polygon fill="none" stroke="black" points="297.658,-168.195 304.342,-176.416 304.243,-165.822 297.658,-168.195"/>
</g>
<!-- 17 -->
<g id="node18" class="node"><title>17</title>
<polygon fill="none" stroke="black" points="1180.5,-0.5 1180.5,-36.5 1304.5,-36.5 1304.5,-0.5 1180.5,-0.5"/>
<text text-anchor="middle" x="1242.5" y="-14.8" font-family="Times New Roman,serif" font-size="14.00">ui.ResultsDirectory</text>
</g>
<!-- 17&#45;&gt;4 -->
<g id="edge7" class="edge"><title>17&#45;&gt;4</title>
<path fill="none" stroke="black" d="M1304.77,-35.1688C1307.72,-35.8092 1310.64,-36.4234 1313.5,-37 1406.12,-55.6557 1429.95,-56.7655 1523.5,-70 1583.95,-78.5525 1602.39,-74.0073 1666.2,-88.2281"/>
<polygon fill="none" stroke="black" points="1665.43,-91.6412 1675.95,-90.4662 1666.99,-84.8185 1665.43,-91.6412"/>
</g>
<!-- 18 -->
<g id="node19" class="node"><title>18</title>
<polygon fill="none" stroke="black" points="87.5,-0.5 87.5,-36.5 185.5,-36.5 185.5,-0.5 87.5,-0.5"/>
<text text-anchor="middle" x="136.5" y="-14.8" font-family="Times New Roman,serif" font-size="14.00">ui.RunContext</text>
</g>
<!-- 18&#45;&gt;0 -->
<g id="edge8" class="edge"><title>18&#45;&gt;0</title>
<path fill="none" stroke="black" d="M119.906,-36.9034C107.823,-49.5755 91.2945,-66.9107 77.8761,-80.9836"/>
<polygon fill="none" stroke="black" points="75.1571,-78.7633 70.7894,-88.416 80.2233,-83.5939 75.1571,-78.7633"/>
</g>
<!-- 23 -->
<g id="node24" class="node"><title>23</title>
<polygon fill="none" stroke="black" points="343,-88.5 343,-124.5 422,-124.5 422,-88.5 343,-88.5"/>
<text text-anchor="middle" x="382.5" y="-102.8" font-family="Times New Roman,serif" font-size="14.00">ui.RunTree</text>
</g>
<!-- 18&#45;&gt;23 -->
<g id="edge27" class="edge"><title>18&#45;&gt;23</title>
<path fill="none" stroke="black" d="M185.52,-36.4172C222.832,-49.3226 275.76,-67.6906 331.396,-87.2726"/>
<polygon fill="black" stroke="black" points="331.612,-87.3483 338.6,-85.5693 342.93,-91.3357 335.942,-93.1147 331.612,-87.3483"/>
<text text-anchor="middle" x="313" y="-58.8" font-family="Times New Roman,serif" font-size="14.00" fill="green">run_context</text>
</g>
<!-- 19 -->
<g id="node20" class="node"><title>19</title>
<polygon fill="none" stroke="black" points="524.5,-88.5 524.5,-124.5 598.5,-124.5 598.5,-88.5 524.5,-88.5"/>
<text text-anchor="middle" x="561.5" y="-102.8" font-family="Times New Roman,serif" font-size="14.00">ui.RunCtrl</text>
</g>
<!-- 19&#45;&gt;15 -->
<g id="edge28" class="edge"><title>19&#45;&gt;15</title>
<path fill="none" stroke="black" d="M543.038,-124.699C532.42,-134.529 518.788,-147.043 506.5,-158 502.705,-161.384 498.687,-164.92 494.709,-168.393"/>
<polygon fill="black" stroke="black" points="494.683,-168.415 492.775,-175.369 485.621,-176.282 487.53,-169.328 494.683,-168.415"/>
<text text-anchor="middle" x="544.5" y="-146.8" font-family="Times New Roman,serif" font-size="14.00" fill="green">run_ctrl</text>
</g>
<!-- 22 -->
<g id="node23" class="node"><title>22</title>
<polygon fill="none" stroke="black" points="539,-176.5 539,-212.5 622,-212.5 622,-176.5 539,-176.5"/>
<text text-anchor="middle" x="580.5" y="-190.8" font-family="Times New Roman,serif" font-size="14.00">ui.RunPanel</text>
</g>
<!-- 19&#45;&gt;22 -->
<g id="edge29" class="edge"><title>19&#45;&gt;22</title>
<path fill="none" stroke="black" d="M568.021,-124.644C570.019,-130.41 572.065,-136.922 573.5,-143 575.082,-149.699 576.348,-156.988 577.345,-163.891"/>
<polygon fill="black" stroke="black" points="577.379,-164.152 582.107,-169.596 578.9,-176.055 574.172,-170.611 577.379,-164.152"/>
<text text-anchor="middle" x="598.5" y="-146.8" font-family="Times New Roman,serif" font-size="14.00" fill="green">run_ctrl</text>
</g>
<!-- 20 -->
<g id="node21" class="node"><title>20</title>
<polygon fill="none" stroke="black" points="635,-264.5 635,-300.5 724,-300.5 724,-264.5 635,-264.5"/>
<text text-anchor="middle" x="679.5" y="-278.8" font-family="Times New Roman,serif" font-size="14.00">ui.RunDialog</text>
</g>
<!-- 21 -->
<g id="node22" class="node"><title>21</title>
<polygon fill="none" stroke="black" points="2623,-0.5 2623,-36.5 2706,-36.5 2706,-0.5 2623,-0.5"/>
<text text-anchor="middle" x="2664.5" y="-14.8" font-family="Times New Roman,serif" font-size="14.00">ui.RunEntry</text>
</g>
<!-- 22&#45;&gt;11 -->
<g id="edge30" class="edge"><title>22&#45;&gt;11</title>
<path fill="none" stroke="black" d="M577.667,-212.903C575.833,-224.167 573.4,-239.116 571.273,-252.183"/>
<polygon fill="black" stroke="black" points="571.209,-252.572 574.193,-259.137 569.281,-264.416 566.297,-257.851 571.209,-252.572"/>
<text text-anchor="middle" x="589.5" y="-234.8" font-family="Times New Roman,serif" font-size="14.00" fill="green">panel</text>
</g>
<!-- 22&#45;&gt;20 -->
<g id="edge31" class="edge"><title>22&#45;&gt;20</title>
<path fill="none" stroke="black" d="M600.534,-212.903C614.852,-225.341 634.34,-242.27 650.374,-256.198"/>
<polygon fill="black" stroke="black" points="650.774,-256.546 657.927,-257.461 659.834,-264.416 652.681,-263.501 650.774,-256.546"/>
<text text-anchor="middle" x="651.5" y="-234.8" font-family="Times New Roman,serif" font-size="14.00" fill="green">panel</text>
</g>
<!-- 23&#45;&gt;3 -->
<g id="edge9" class="edge"><title>23&#45;&gt;3</title>
<path fill="none" stroke="black" d="M367.93,-124.903C357.419,-137.458 343.076,-154.59 331.353,-168.592"/>
<polygon fill="none" stroke="black" points="328.539,-166.502 324.803,-176.416 333.906,-170.995 328.539,-166.502"/>
</g>
<!-- 23&#45;&gt;15 -->
<g id="edge32" class="edge"><title>23&#45;&gt;15</title>
<path fill="none" stroke="black" d="M376.533,-124.785C374.052,-135.239 373.053,-148.364 379.5,-158 383.286,-163.659 393.905,-169.441 406.446,-174.651"/>
<polygon fill="black" stroke="black" points="406.649,-174.729 413.689,-173.167 417.838,-179.064 410.798,-180.627 406.649,-174.729"/>
<text text-anchor="middle" x="408.5" y="-146.8" font-family="Times New Roman,serif" font-size="14.00" fill="green">result_tree</text>
</g>
<!-- 23&#45;&gt;22 -->
<g id="edge33" class="edge"><title>23&#45;&gt;22</title>
<path fill="none" stroke="black" d="M409.978,-124.511C418.879,-130.213 428.717,-136.72 437.5,-143 446.252,-149.258 446.904,-153.135 456.5,-158 483.236,-171.555 492.685,-167.738 521.5,-176 523.442,-176.557 525.418,-177.127 527.414,-177.705"/>
<polygon fill="black" stroke="black" points="527.427,-177.709 534.308,-175.55 538.946,-181.072 532.066,-183.23 527.427,-177.709"/>
<text text-anchor="middle" x="479.5" y="-146.8" font-family="Times New Roman,serif" font-size="14.00" fill="green">run_tree</text>
</g>
<!-- 24 -->
<g id="node25" class="node"><title>24</title>
<polygon fill="none" stroke="black" points="1322.5,-0.5 1322.5,-36.5 1438.5,-36.5 1438.5,-0.5 1322.5,-0.5"/>
<text text-anchor="middle" x="1380.5" y="-14.8" font-family="Times New Roman,serif" font-size="14.00">ui.ScriptDirectory</text>
</g>
<!-- 24&#45;&gt;4 -->
<g id="edge10" class="edge"><title>24&#45;&gt;4</title>
<path fill="none" stroke="black" d="M1438.58,-34.7715C1441.6,-35.5325 1444.58,-36.2793 1447.5,-37 1541.49,-60.2145 1568.76,-60.4235 1666.21,-88.0639"/>
<polygon fill="none" stroke="black" points="1665.28,-91.4403 1675.86,-90.8261 1667.21,-84.7104 1665.28,-91.4403"/>
</g>
<!-- 25 -->
<g id="node26" class="node"><title>25</title>
<polygon fill="none" stroke="black" points="1089.5,-88.5 1089.5,-124.5 1183.5,-124.5 1183.5,-88.5 1089.5,-88.5"/>
<text text-anchor="middle" x="1136.5" y="-102.8" font-family="Times New Roman,serif" font-size="14.00">ui.ScriptEntry</text>
</g>
<!-- 25&#45;&gt;9 -->
<g id="edge11" class="edge"><title>25&#45;&gt;9</title>
<path fill="none" stroke="black" d="M1170.29,-124.697C1196.98,-138.276 1234.37,-157.302 1263.07,-171.906"/>
<polygon fill="none" stroke="black" points="1261.55,-175.064 1272.05,-176.48 1264.73,-168.825 1261.55,-175.064"/>
</g>
<!-- 26 -->
<g id="node27" class="node"><title>26</title>
<polygon fill="none" stroke="black" points="1456.5,-0.5 1456.5,-36.5 1578.5,-36.5 1578.5,-0.5 1456.5,-0.5"/>
<text text-anchor="middle" x="1517.5" y="-14.8" font-family="Times New Roman,serif" font-size="14.00">ui.ScriptsDirectory</text>
</g>
<!-- 26&#45;&gt;4 -->
<g id="edge12" class="edge"><title>26&#45;&gt;4</title>
<path fill="none" stroke="black" d="M1557.49,-36.6967C1589.48,-50.4519 1634.47,-69.7971 1668.6,-84.4729"/>
<polygon fill="none" stroke="black" points="1667.35,-87.7449 1677.92,-88.4799 1670.11,-81.3142 1667.35,-87.7449"/>
</g>
<!-- 27 -->
<g id="node28" class="node"><title>27</title>
<polygon fill="none" stroke="black" points="1596.5,-0.5 1596.5,-36.5 1706.5,-36.5 1706.5,-0.5 1596.5,-0.5"/>
<text text-anchor="middle" x="1651.5" y="-14.8" font-family="Times New Roman,serif" font-size="14.00">ui.SuiteDirectory</text>
</g>
<!-- 27&#45;&gt;4 -->
<g id="edge13" class="edge"><title>27&#45;&gt;4</title>
<path fill="none" stroke="black" d="M1664.86,-36.9034C1674.4,-49.3408 1687.39,-66.2702 1698.08,-80.1985"/>
<polygon fill="none" stroke="black" points="1695.52,-82.6138 1704.39,-88.416 1701.08,-78.352 1695.52,-82.6138"/>
</g>
<!-- 28 -->
<g id="node29" class="node"><title>28</title>
<polygon fill="none" stroke="black" points="1201.5,-88.5 1201.5,-124.5 1289.5,-124.5 1289.5,-88.5 1201.5,-88.5"/>
<text text-anchor="middle" x="1245.5" y="-102.8" font-family="Times New Roman,serif" font-size="14.00">ui.SuiteEntry</text>
</g>
<!-- 28&#45;&gt;9 -->
<g id="edge14" class="edge"><title>28&#45;&gt;9</title>
<path fill="none" stroke="black" d="M1257.64,-124.903C1266.32,-137.341 1278.13,-154.27 1287.85,-168.198"/>
<polygon fill="none" stroke="black" points="1284.99,-170.217 1293.58,-176.416 1290.73,-166.212 1284.99,-170.217"/>
</g>
<!-- 29 -->
<g id="node30" class="node"><title>29</title>
<polygon fill="none" stroke="black" points="1307.5,-88.5 1307.5,-124.5 1423.5,-124.5 1423.5,-88.5 1307.5,-88.5"/>
<text text-anchor="middle" x="1365.5" y="-102.8" font-family="Times New Roman,serif" font-size="14.00">ui.SuiteSuiteEntry</text>
</g>
<!-- 29&#45;&gt;9 -->
<g id="edge15" class="edge"><title>29&#45;&gt;9</title>
<path fill="none" stroke="black" d="M1353.36,-124.903C1344.68,-137.341 1332.87,-154.27 1323.15,-168.198"/>
<polygon fill="none" stroke="black" points="1320.27,-166.212 1317.42,-176.416 1326.01,-170.217 1320.27,-166.212"/>
</g>
<!-- 30 -->
<g id="node31" class="node"><title>30</title>
<polygon fill="none" stroke="black" points="1442,-88.5 1442,-124.5 1555,-124.5 1555,-88.5 1442,-88.5"/>
<text text-anchor="middle" x="1498.5" y="-102.8" font-family="Times New Roman,serif" font-size="14.00">ui.SuiteTestEntry</text>
</g>
<!-- 30&#45;&gt;9 -->
<g id="edge16" class="edge"><title>30&#45;&gt;9</title>
<path fill="none" stroke="black" d="M1459.91,-124.697C1429.17,-138.393 1385.99,-157.632 1353.11,-172.284"/>
<polygon fill="none" stroke="black" points="1351.41,-169.213 1343.7,-176.48 1354.26,-175.607 1351.41,-169.213"/>
</g>
<!-- 31 -->
<g id="node32" class="node"><title>31</title>
<polygon fill="none" stroke="black" points="1724.5,-0.5 1724.5,-36.5 1840.5,-36.5 1840.5,-0.5 1724.5,-0.5"/>
<text text-anchor="middle" x="1782.5" y="-14.8" font-family="Times New Roman,serif" font-size="14.00">ui.SuitesDirectory</text>
</g>
<!-- 31&#45;&gt;4 -->
<g id="edge17" class="edge"><title>31&#45;&gt;4</title>
<path fill="none" stroke="black" d="M1769.35,-36.9034C1759.95,-49.3408 1747.15,-66.2702 1736.62,-80.1985"/>
<polygon fill="none" stroke="black" points="1733.65,-78.3279 1730.41,-88.416 1739.23,-82.5487 1733.65,-78.3279"/>
</g>
<!-- 32 -->
<g id="node33" class="node"><title>32</title>
<polygon fill="none" stroke="black" points="1859,-0.5 1859,-36.5 1966,-36.5 1966,-0.5 1859,-0.5"/>
<text text-anchor="middle" x="1912.5" y="-14.8" font-family="Times New Roman,serif" font-size="14.00">ui.TestDirectory</text>
</g>
<!-- 32&#45;&gt;4 -->
<g id="edge18" class="edge"><title>32&#45;&gt;4</title>
<path fill="none" stroke="black" d="M1873.51,-36.6967C1842.45,-50.3931 1798.83,-69.6319 1765.6,-84.2845"/>
<polygon fill="none" stroke="black" points="1763.83,-81.2422 1756.09,-88.4799 1766.65,-87.647 1763.83,-81.2422"/>
</g>
<!-- 33 -->
<g id="node34" class="node"><title>33</title>
<polygon fill="none" stroke="black" points="1573,-88.5 1573,-124.5 1658,-124.5 1658,-88.5 1573,-88.5"/>
<text text-anchor="middle" x="1615.5" y="-102.8" font-family="Times New Roman,serif" font-size="14.00">ui.TestEntry</text>
</g>
<!-- 33&#45;&gt;9 -->
<g id="edge19" class="edge"><title>33&#45;&gt;9</title>
<path fill="none" stroke="black" d="M1572.72,-122.142C1569.61,-123.132 1566.51,-124.095 1563.5,-125 1499.92,-144.118 1426.7,-163.291 1374.54,-176.47"/>
<polygon fill="none" stroke="black" points="1373.57,-173.106 1364.73,-178.942 1375.28,-179.894 1373.57,-173.106"/>
</g>
<!-- 34 -->
<g id="node35" class="node"><title>34</title>
<polygon fill="none" stroke="black" points="1984,-0.5 1984,-36.5 2097,-36.5 2097,-0.5 1984,-0.5"/>
<text text-anchor="middle" x="2040.5" y="-14.8" font-family="Times New Roman,serif" font-size="14.00">ui.TestsDirectory</text>
</g>
<!-- 34&#45;&gt;4 -->
<g id="edge20" class="edge"><title>34&#45;&gt;4</title>
<path fill="none" stroke="black" d="M1983.87,-34.5785C1923.15,-50.7446 1827.59,-76.1869 1768.95,-91.8005"/>
<polygon fill="none" stroke="black" points="1767.92,-88.4527 1759.16,-94.4079 1769.72,-95.2171 1767.92,-88.4527"/>
</g>
<!-- 35 -->
<g id="node36" class="node"><title>35</title>
<polygon fill="none" stroke="black" points="118,-264.5 118,-300.5 175,-300.5 175,-264.5 118,-264.5"/>
<text text-anchor="middle" x="146.5" y="-278.8" font-family="Times New Roman,serif" font-size="14.00">ui.Tool</text>
</g>
<!-- 36&#45;&gt;35 -->
<g id="edge34" class="edge"><title>36&#45;&gt;35</title>
<path fill="none" stroke="black" d="M148.811,-212.819C148.308,-218.596 147.809,-225.07 147.5,-231 147.145,-237.81 146.914,-245.143 146.763,-252.052"/>
<polygon fill="black" stroke="black" points="146.761,-252.196 150.663,-258.26 146.567,-264.194 142.665,-258.131 146.761,-252.196"/>
<text text-anchor="middle" x="157.5" y="-234.8" font-family="Times New Roman,serif" font-size="14.00" fill="green">frm</text>
</g>
<!-- 37 -->
<g id="node38" class="node"><title>37</title>
<polygon fill="none" stroke="black" points="685.5,-0.5 685.5,-36.5 759.5,-36.5 759.5,-0.5 685.5,-0.5"/>
<text text-anchor="middle" x="722.5" y="-14.8" font-family="Times New Roman,serif" font-size="14.00" fill="red">ui.UIError</text>
</g>
<!-- 37&#45;&gt;2 -->
<g id="edge21" class="edge"><title>37&#45;&gt;2</title>
<path fill="none" stroke="black" d="M722.5,-36.9034C722.5,-48.7541 722.5,-64.6831 722.5,-78.2083"/>
<polygon fill="none" stroke="black" points="719,-78.416 722.5,-88.416 726,-78.416 719,-78.416"/>
</g>
<!-- 38 -->
<g id="node39" class="node"><title>38</title>
<polygon fill="none" stroke="black" points="2115,-0.5 2115,-36.5 2246,-36.5 2246,-0.5 2115,-0.5"/>
<text text-anchor="middle" x="2180.5" y="-14.8" font-family="Times New Roman,serif" font-size="14.00">ui.WorkingDirectory</text>
</g>
<!-- 38&#45;&gt;4 -->
<g id="edge22" class="edge"><title>38&#45;&gt;4</title>
<path fill="none" stroke="black" d="M2114.69,-35.0684C2111.59,-35.7357 2108.51,-36.3831 2105.5,-37 1985.66,-61.5417 1843.9,-85.224 1769.34,-97.2707"/>
<polygon fill="none" stroke="black" points="1768.59,-93.8464 1759.27,-98.8922 1769.7,-100.757 1768.59,-93.8464"/>
</g>
</g>
</svg>
