<?xml version="1.0" encoding="UTF-8" standalone="no"?>
<!DOCTYPE svg PUBLIC "-//W3C//DTD SVG 1.1//EN"
 "http://www.w3.org/Graphics/SVG/1.1/DTD/svg11.dtd">
<!-- Generated by graphviz version 2.38.0 (20140413.2041)
 -->
<!-- Title: packages_demo_SVP_simplify_ui_test Pages: 1 -->
<svg width="240pt" height="188pt"
 viewBox="0.00 0.00 239.50 188.00" xmlns="http://www.w3.org/2000/svg" xmlns:xlink="http://www.w3.org/1999/xlink">
<g id="graph0" class="graph" transform="scale(1 1) rotate(0) translate(4 184)">
<title>packages_demo_SVP_simplify_ui_test</title>
<polygon fill="white" stroke="none" points="-4,4 -4,-184 235.5,-184 235.5,4 -4,4"/>
<!-- 0 -->
<g id="node1" class="node"><title>0</title>
<polygon fill="none" stroke="black" points="100,-108 46,-108 46,-72 100,-72 100,-108"/>
<text text-anchor="middle" x="73" y="-86.3" font-family="Times New Roman,serif" font-size="14.00">app</text>
</g>
<!-- 1 -->
<g id="node2" class="node"><title>1</title>
<polygon fill="none" stroke="black" points="54,-180 0,-180 0,-144 54,-144 54,-180"/>
<text text-anchor="middle" x="27" y="-158.3" font-family="Times New Roman,serif" font-size="14.00">result</text>
</g>
<!-- 0&#45;&gt;1 -->
<g id="edge1" class="edge"><title>0&#45;&gt;1</title>
<path fill="none" stroke="black" d="M61.6292,-108.303C56.2815,-116.441 49.7957,-126.311 43.8894,-135.299"/>
<polygon fill="black" stroke="black" points="38.24,-143.896 39.9711,-133.067 40.9859,-139.717 43.7318,-135.539 43.7318,-135.539 43.7318,-135.539 40.9859,-139.717 47.4925,-138.01 38.24,-143.896 38.24,-143.896"/>
</g>
<!-- 2 -->
<g id="node3" class="node"><title>2</title>
<polygon fill="none" stroke="black" points="145,-180 91,-180 91,-144 145,-144 145,-180"/>
<text text-anchor="middle" x="118" y="-158.3" font-family="Times New Roman,serif" font-size="14.00">script</text>
</g>
<!-- 0&#45;&gt;2 -->
<g id="edge2" class="edge"><title>0&#45;&gt;2</title>
<path fill="none" stroke="black" d="M84.1236,-108.303C89.355,-116.441 95.6999,-126.311 101.478,-135.299"/>
<polygon fill="black" stroke="black" points="107.004,-143.896 97.8114,-137.917 104.301,-139.69 101.597,-135.484 101.597,-135.484 101.597,-135.484 104.301,-139.69 105.382,-133.05 107.004,-143.896 107.004,-143.896"/>
</g>
<!-- 3 -->
<g id="node4" class="node"><title>3</title>
<polygon fill="none" stroke="black" points="231.5,-108 156.5,-108 156.5,-72 231.5,-72 231.5,-108"/>
<text text-anchor="middle" x="194" y="-86.3" font-family="Times New Roman,serif" font-size="14.00">svptreectrl</text>
</g>
<!-- 4 -->
<g id="node5" class="node"><title>4</title>
<polygon fill="none" stroke="black" points="127,-36 73,-36 73,-0 127,-0 127,-36"/>
<text text-anchor="middle" x="100" y="-14.3" font-family="Times New Roman,serif" font-size="14.00">ui</text>
</g>
<!-- 4&#45;&gt;0 -->
<g id="edge3" class="edge"><title>4&#45;&gt;0</title>
<path fill="none" stroke="black" d="M93.3258,-36.3034C90.2851,-44.1868 86.6173,-53.6958 83.2393,-62.4536"/>
<polygon fill="black" stroke="black" points="79.5974,-71.8957 78.9977,-60.9462 81.3968,-67.2307 83.1962,-62.5656 83.1962,-62.5656 83.1962,-62.5656 81.3968,-67.2307 87.3947,-64.1851 79.5974,-71.8957 79.5974,-71.8957"/>
</g>
<!-- 4&#45;&gt;1 -->
<g id="edge4" class="edge"><title>4&#45;&gt;1</title>
<path fill="none" stroke="black" d="M72.7299,-34.952C59.6853,-44.0795 45.1644,-56.7537 37,-72 26.8758,-90.9061 24.7583,-115.275 24.9586,-133.733"/>
<polygon fill="black" stroke="black" points="25.3014,-143.831 20.4646,-133.989 25.1317,-138.834 24.962,-133.837 24.962,-133.837 24.962,-133.837 25.1317,-138.834 29.4595,-133.684 25.3014,-143.831 25.3014,-143.831"/>
</g>
<!-- 4&#45;&gt;2 -->
<g id="edge5" class="edge"><title>4&#45;&gt;2</title>
<path fill="none" stroke="black" d="M103.212,-36.1409C105.078,-46.4971 107.373,-59.9765 109,-72 111.794,-92.6466 114.131,-116.095 115.723,-133.739"/>
<polygon fill="black" stroke="black" points="116.615,-143.898 111.257,-134.33 116.178,-138.917 115.74,-133.936 115.74,-133.936 115.74,-133.936 116.178,-138.917 120.223,-133.542 116.615,-143.898 116.615,-143.898"/>
</g>
<!-- 4&#45;&gt;3 -->
<g id="edge6" class="edge"><title>4&#45;&gt;3</title>
<path fill="none" stroke="black" d="M123.236,-36.3034C135.188,-45.204 149.923,-56.1768 162.847,-65.8011"/>
<polygon fill="black" stroke="black" points="171.031,-71.8957 160.323,-69.5322 167.021,-68.9093 163.011,-65.923 163.011,-65.923 163.011,-65.923 167.021,-68.9093 165.699,-62.3138 171.031,-71.8957 171.031,-71.8957"/>
</g>
</g>
</svg>
